<?xml version="1.0"?>
<svg xmlns="http://www.w3.org/2000/svg" xmlns:xlink="http://www.w3.org/1999/xlink" xmlns:svgjs="http://svgjs.com/svgjs" version="1.1" width="512" height="512" x="0" y="0" viewBox="0 0 64 64" style="enable-background:new 0 0 512 512" xml:space="preserve" class=""><g><path xmlns="http://www.w3.org/2000/svg" d="m42 34h10v27h-10z" fill="#407093" data-original="#937963" style="" class=""/><circle xmlns="http://www.w3.org/2000/svg" cx="32" cy="9" fill="#407093" r="6" data-original="#039791" style="" class=""/><path xmlns="http://www.w3.org/2000/svg" d="m38 39 1-16v10.5a2.5 2.5 0 0 0 2.5 2.5 2.5 2.5 0 0 0 2.5-2.5v-13.5a4 4 0 0 0 -4-4h-16a4 4 0 0 0 -4 4v13.5a2.5 2.5 0 0 0 2.5 2.5 2.5 2.5 0 0 0 2.5-2.5v-10.5l1 16v19a3 3 0 0 0 3 3 3 3 0 0 0 3-3 3 3 0 0 0 3 3 3 3 0 0 0 3-3z" fill="#407093" data-original="#039791" style="" class=""/><path xmlns="http://www.w3.org/2000/svg" d="m42 34h19v27h-19z" fill="#407093" data-original="#d6c2ad" style="" class=""/><path xmlns="http://www.w3.org/2000/svg" d="m47 56v-22h5v27z" fill="#c2d0d5" data-original="#c7b29e" style="" class=""/><path xmlns="http://www.w3.org/2000/svg" d="m3 34h22v27h-22z" fill="#c2d0d5" data-original="#f4bb3a" style="" class=""/><path xmlns="http://www.w3.org/2000/svg" d="m3 34h10v27h-10z" fill="#c2d0d5" data-original="#d6562b" style="" class=""/><path xmlns="http://www.w3.org/2000/svg" d="m8 56v-22h5v27z" fill="#407093" data-original="#f09b36" style="" class=""/><path xmlns="http://www.w3.org/2000/svg" d="m23 34h-2v-4a2 2 0 0 0 -4 0v4h-2v-4a4 4 0 0 1 8 0z" fill="#29485a" data-original="#29485a" style="" class=""/><path xmlns="http://www.w3.org/2000/svg" d="m12 34h-2v-4a2 2 0 0 0 -4 0v4h-2v-4a4 4 0 0 1 8 0z" fill="#29485a" data-original="#29485a" style="" class=""/><path xmlns="http://www.w3.org/2000/svg" d="m3 61 5-5 5 5z" fill="#407093" data-original="#ed7c31" style="" class=""/><path xmlns="http://www.w3.org/2000/svg" d="m42 61 5-5 5 5z" fill="#407093" data-original="#b29c88" style="" class=""/><path xmlns="http://www.w3.org/2000/svg" d="m40 43h-2v-4a2 2 0 0 0 -4 0v4h-2v-4a4 4 0 0 1 8 0z" fill="#29485a" data-original="#29485a" style="" class=""/><path xmlns="http://www.w3.org/2000/svg" d="m29 43h-2v-4a2 2 0 0 0 -4 0v4h-2v-4a4 4 0 0 1 8 0z" fill="#29485a" data-original="#29485a" style="" class=""/><path xmlns="http://www.w3.org/2000/svg" d="m20 43h22v18h-22z" fill="#c4ced1" data-original="#97d7d9" style="" class=""/><path xmlns="http://www.w3.org/2000/svg" d="m20 43h10v18h-10z" fill="#c2d0d5" data-original="#6ac9cd" style="" class=""/><path xmlns="http://www.w3.org/2000/svg" d="m20 61 5-5 5 5z" fill="#407093" data-original="#4ec3c7" style="" class=""/><path xmlns="http://www.w3.org/2000/svg" d="m25 56v-13h5v18z" fill="#407093" data-original="#81d0d3" style="" class=""/><g xmlns="http://www.w3.org/2000/svg" fill="#29485a"><path d="m60 34h-2v-4a2 2 0 0 0 -4 0v4h-2v-4a4 4 0 0 1 8 0z" fill="#29485a" data-original="#29485a" style="" class=""/><path d="m51 34h-2v-4a2 2 0 0 0 -4 0v4h-2v-4a4 4 0 0 1 8 0z" fill="#29485a" data-original="#29485a" style="" class=""/></g></g></svg>
