<svg width="966" height="278" viewBox="0 0 966 278" fill="none" xmlns="http://www.w3.org/2000/svg">
<path d="M225.663 228.547C233.919 228.547 238.048 217.214 238.048 194.546V77.6978C238.048 74.6053 237.739 72.8117 237.12 72.3169C236.533 71.7912 235.883 71.4355 235.172 71.25C234.182 71.0026 232.28 70.8789 229.466 70.8789H222.462V63.2715H268.06L267.643 70.8789H261.566C257.824 70.8789 255.706 71.1572 255.211 71.7139C254.747 72.2705 254.376 72.889 254.098 73.5693C253.634 74.5589 253.402 76.569 253.402 79.5996V190.371C253.402 197.02 253.046 202.323 252.335 206.282C251.624 210.24 250.371 213.719 248.578 216.719C246.784 219.718 243.831 223.213 239.718 227.202C235.605 231.222 231.662 234.191 227.889 236.108C224.116 238.057 220.174 239.031 216.061 239.031C211.979 239.031 208.422 238.041 205.392 236.062C202.33 234.114 200.799 232.166 200.799 230.217C200.799 228.3 201.495 226.398 202.887 224.512C204.247 222.656 205.855 221.125 207.711 219.919C209.566 218.713 211.113 218.11 212.35 218.11C213.556 218.11 214.623 218.466 215.55 219.177C216.478 219.889 217.298 220.754 218.009 221.775C218.751 222.795 219.493 223.831 220.235 224.883C221.936 227.326 223.745 228.547 225.663 228.547ZM284.156 142.871C281.218 142.871 279.75 140.598 279.75 136.052C279.75 133.114 281.234 129.728 284.203 125.894C289.924 118.472 299.526 114.761 313.009 114.761C320.678 114.761 325.812 117.544 328.409 123.11C329.306 125.059 329.754 127.347 329.754 129.976V165.508C329.754 171.26 330.821 175.342 332.955 177.754C334.965 179.98 338.011 181.65 342.093 182.764C343.237 183.073 343.81 183.599 343.81 184.341C343.81 185.083 343.006 185.949 341.397 186.938C334.594 191.051 331.022 193.154 330.682 193.247C327.868 191.268 325.812 189.521 324.513 188.005C322.905 186.181 320.724 183.49 317.972 179.934C315.436 183.367 312.097 186.258 307.953 188.608C303.84 190.928 300.237 192.087 297.145 192.087C294.083 192.087 291.563 191.809 289.583 191.252C287.604 190.696 285.749 189.861 284.017 188.748C280.182 186.274 278.265 182.532 278.265 177.522C278.265 172.481 279.935 167.734 283.275 163.281C286.615 158.828 291.222 155.272 297.098 152.612C303.005 149.922 309.452 148.577 316.441 148.577V137.166C316.441 131.723 315.359 128.089 313.194 126.265C311.153 124.533 308.432 123.667 305.03 123.667C301.66 123.667 298.985 123.868 297.005 124.27C295.026 124.672 293.526 125.167 292.506 125.754C290.341 126.991 288.95 128.259 288.331 129.558C288.517 130.393 288.779 131.429 289.12 132.666C289.862 135.326 290.233 137.212 290.233 138.325C290.233 139.438 289.475 140.474 287.96 141.433C286.476 142.392 285.208 142.871 284.156 142.871ZM291.532 172.651C291.532 175.156 292.444 177.321 294.269 179.146C296.124 180.939 298.567 181.836 301.598 181.836C304.628 181.836 306.963 181.604 308.602 181.14C310.272 180.676 311.586 180.089 312.545 179.377C313.504 178.666 314.292 177.816 314.911 176.826C315.931 175.249 316.441 173.44 316.441 171.399V153.726C308.772 153.726 302.634 155.751 298.026 159.802C293.696 163.606 291.532 167.889 291.532 172.651ZM350.443 118.564C359.844 117.049 368.766 115.147 377.208 112.859V178.774C377.208 181.187 377.765 182.609 378.878 183.042C380.331 183.63 383.702 183.923 388.99 183.923H392.423V190H351.185V183.923H352.901C358.684 183.923 361.869 183.66 362.457 183.135C363.416 182.238 363.895 181.047 363.895 179.563V128.816C363.895 126.404 363.694 124.796 363.292 123.992C362.89 123.157 361.978 122.739 360.555 122.739C359.133 122.739 355.824 123.25 350.628 124.27L350.443 118.564ZM372.291 85.7227C370.961 85.7227 369.353 84.6248 367.467 82.4292C365.611 80.2026 364.684 78.3936 364.684 77.002C364.684 75.6104 365.689 73.9559 367.699 72.0386C369.709 70.1213 371.317 69.1626 372.523 69.1626C373.76 69.1626 375.445 70.1676 377.579 72.1777C379.744 74.1878 380.826 75.8732 380.826 77.2339C380.826 78.5636 379.728 80.3109 377.533 82.4756C375.368 84.6403 373.621 85.7227 372.291 85.7227ZM435.794 182.578H438.067C441.469 182.578 443.742 181.991 444.886 180.815C446.03 179.64 447.345 177.383 448.829 174.043C450.344 170.672 452.277 166.358 454.627 161.101C457.009 155.813 460.008 149.149 463.626 141.108C467.245 133.037 469.858 127.223 471.466 123.667C473.074 120.111 474.465 117.065 475.641 114.529C476.816 111.962 477.62 110.168 478.053 109.148C478.486 108.127 478.965 107.014 479.491 105.808L498.834 58.7256H502.823C510.493 78.7337 520.187 102.932 531.908 131.321C543.628 159.679 550.107 175.017 551.344 177.336C552.581 179.656 553.849 181.109 555.147 181.697C556.477 182.284 558.302 182.578 560.621 182.578H563.451L563.265 190H519.94L520.125 182.578H525.831C528.985 182.578 531.166 182.454 532.372 182.207C533.578 181.929 534.181 181.295 534.181 180.305C534.181 179.594 533.887 178.527 533.299 177.104C532.743 175.651 532.403 174.754 532.279 174.414L518.224 139.856H474.156L459.127 173.301C457.859 176.393 457.225 178.542 457.225 179.749C457.225 180.955 457.704 181.728 458.663 182.068C459.653 182.408 461.771 182.578 465.018 182.578H472.811V190H435.98L435.794 182.578ZM477.774 131.46H515.023L496.979 86.4648L477.774 131.46ZM582.005 122.739C581.82 122.739 578.403 123.373 571.754 124.641V118.75C576.269 118.101 583.521 116.678 593.509 114.482L598.333 113.416C598.086 117.714 597.962 122.337 597.962 127.285C598.364 127.069 599.261 126.435 600.653 125.383C602.044 124.332 603.544 123.265 605.152 122.183C606.791 121.069 608.647 119.956 610.719 118.843C615.419 116.245 619.455 114.946 622.826 114.946C626.227 114.946 628.81 115.348 630.572 116.152C632.366 116.925 633.757 117.807 634.747 118.796C635.768 119.755 636.664 120.915 637.438 122.275C638.489 124.038 639.2 125.646 639.571 127.1C647.333 121.286 653.085 117.807 656.827 116.663C660.6 115.518 663.661 114.946 666.012 114.946C668.362 114.946 670.48 115.24 672.367 115.828C674.253 116.415 675.815 117.173 677.052 118.101C678.32 118.997 679.402 120.157 680.299 121.58C681.227 123.002 681.922 124.394 682.386 125.754C682.881 127.115 683.268 128.708 683.546 130.532C683.979 133.13 684.195 136.3 684.195 140.042V179.192C684.195 181.449 684.752 182.81 685.865 183.274C686.855 183.707 689.793 183.923 694.679 183.923H696.581V190H659.703V183.923C664.868 183.923 668.022 183.722 669.166 183.32C670.341 182.887 670.929 181.573 670.929 179.377V140.042C670.929 132.032 668.764 127.409 664.435 126.172C663.105 125.77 661.373 125.569 659.239 125.569C657.136 125.569 655.034 125.785 652.931 126.218C650.859 126.651 649.096 127.177 647.643 127.795C644.798 129.032 642.416 130.393 640.499 131.877C641.025 135.805 641.288 140.366 641.288 145.562V180.676C641.288 182.161 641.612 183.027 642.262 183.274C642.911 183.521 643.653 183.691 644.488 183.784C645.663 183.877 647.766 183.923 650.797 183.923H652.467V190H616.378L616.192 183.923H618.465C622.393 183.923 624.959 183.753 626.166 183.413C627.372 183.073 627.975 182.222 627.975 180.862V140.042C627.975 135.186 627.016 131.568 625.099 129.187C623.212 126.775 619.841 125.569 614.986 125.569C610.162 125.569 604.611 127.61 598.333 131.692V179.749C598.333 181.79 598.627 182.918 599.215 183.135C599.833 183.351 600.576 183.537 601.441 183.691C602.462 183.846 604.781 183.923 608.399 183.923H609.374V190H572.311L572.125 183.923H577.459C580.614 183.923 582.655 183.691 583.583 183.228C584.541 182.733 585.021 181.573 585.021 179.749V132.48C585.021 128.337 584.866 125.677 584.557 124.502C584.278 123.327 583.428 122.739 582.005 122.739ZM710.821 186.011L711.378 160.544V67.4463C711.378 63.6426 710.497 61.7407 708.734 61.7407C707.744 61.7407 704.126 62.4365 697.879 63.8281L697.323 57.937C701.59 57.1948 710.713 55.4321 724.691 52.6489V126.172C724.907 126.017 725.557 125.492 726.639 124.595C727.752 123.698 728.788 122.878 729.747 122.136C730.737 121.363 732.082 120.466 733.783 119.446C735.514 118.394 737.215 117.513 738.885 116.802C742.936 115.07 747.482 114.204 752.523 114.204C757.564 114.204 762.341 115.194 766.856 117.173C771.402 119.152 775.051 121.812 777.804 125.151C783.432 131.986 786.246 140.181 786.246 149.736C786.246 163.188 781.437 174.229 771.82 182.856C765.202 188.763 756.961 191.716 747.096 191.716C741.158 191.716 736.411 191.051 732.855 189.722C726.113 187.248 722.31 186.011 721.444 186.011C720.609 186.011 719.217 186.737 717.269 188.191C715.321 189.644 713.867 190.371 712.909 190.371C711.517 190.371 710.821 188.918 710.821 186.011ZM746.539 124.456C737.509 124.456 730.226 126.79 724.691 131.46V171.399C724.691 177.708 729.098 181.913 737.911 184.016C740.23 184.573 742.395 184.851 744.405 184.851C746.446 184.851 748.255 184.758 749.833 184.573C751.41 184.387 753.126 184.016 754.981 183.459C756.868 182.903 758.615 182.192 760.223 181.326C761.862 180.46 763.455 179.285 765.001 177.8C766.547 176.316 767.861 174.631 768.944 172.744C771.356 168.477 772.562 163.699 772.562 158.411C772.562 153.092 772.16 148.762 771.356 145.422C770.552 142.052 769.531 139.284 768.294 137.119C767.057 134.954 765.573 133.053 763.841 131.414C762.11 129.775 760.44 128.538 758.832 127.703C757.254 126.837 755.584 126.141 753.822 125.615C751.224 124.842 748.797 124.456 746.539 124.456ZM809.996 147.046L809.811 149.736C809.811 163.869 815.47 173.146 826.788 177.568C830.19 178.898 833.591 179.563 836.993 179.563C840.395 179.563 843.379 179.254 845.946 178.635C848.513 178.017 850.662 177.275 852.394 176.409C854.156 175.512 855.733 174.631 857.125 173.765C860.558 171.662 862.568 170.61 863.155 170.61C864.299 170.61 864.872 171.182 864.872 172.327C864.872 173.471 864.346 174.801 863.294 176.316C862.243 177.831 860.666 179.517 858.563 181.372C856.46 183.197 854.063 184.928 851.373 186.567C845.003 190.495 837.983 192.458 830.313 192.458C819.892 192.458 811.573 189.103 805.357 182.393C798.801 175.249 795.523 166.188 795.523 155.21C795.523 142.995 798.771 133.068 805.265 125.43C811.635 117.946 819.598 114.204 829.154 114.204C839.854 114.204 848.636 118.503 855.501 127.1C858.965 131.429 860.697 135.233 860.697 138.511C860.697 139.408 860.326 140.103 859.583 140.598C858.872 141.093 858.238 141.34 857.682 141.34L809.996 147.046ZM810.367 140.413L843.023 136.238C842.219 133.424 840.921 130.857 839.127 128.538C837.333 126.187 835.942 124.579 834.952 123.713C832.571 121.672 829.71 120.652 826.371 120.652C823.031 120.652 819.784 122.43 816.629 125.986C813.475 129.512 811.388 134.32 810.367 140.413ZM872.247 222.703L877.767 223.074C879.777 223.074 882.375 220.909 885.56 216.58C888.745 212.281 893.121 204.751 898.688 193.989L904.393 182.949L880.643 131.877C880.303 131.104 879.854 130.13 879.298 128.955C878.772 127.78 878.432 126.991 878.277 126.589C878.123 126.156 877.813 125.584 877.35 124.873C876.917 124.131 876.623 123.682 876.468 123.528C876.314 123.342 875.973 123.064 875.448 122.693C874.922 122.291 874.489 122.074 874.149 122.043C873.809 121.982 873.237 121.889 872.433 121.765C871.66 121.641 870.917 121.58 870.206 121.58H867.33L866.959 115.503H903.233L902.862 121.58H899.615C897.172 121.58 895.456 121.75 894.466 122.09C893.477 122.399 892.982 122.94 892.982 123.713C892.982 124.486 893.059 125.182 893.214 125.801C893.399 126.388 893.569 126.899 893.724 127.332C893.91 127.764 894.173 128.398 894.513 129.233C894.884 130.037 895.131 130.594 895.255 130.903L911.397 167.178L923.365 140.227C927.54 131.012 929.627 125.77 929.627 124.502C929.627 123.203 929.04 122.399 927.865 122.09C926.69 121.75 924.494 121.58 921.278 121.58H918.634V115.503H949.574V121.58H945.028C943.296 121.58 942.152 121.672 941.595 121.858C941.039 122.013 940.606 122.121 940.296 122.183C940.018 122.244 939.693 122.476 939.322 122.878C938.951 123.28 938.673 123.574 938.487 123.76C938.333 123.945 938.07 124.394 937.699 125.105C937.359 125.816 937.096 126.373 936.91 126.775C936.23 128.414 935.519 130.053 934.776 131.692L905.877 195.52C894.281 221.095 885.22 235.273 878.695 238.057C876.932 238.83 874.907 239.216 872.618 239.216C870.33 239.216 868.49 238.397 867.098 236.758C865.737 235.15 865.057 233.062 865.057 230.496C865.057 227.929 865.722 225.981 867.052 224.651C868.382 223.352 870.113 222.703 872.247 222.703Z" fill="black"/>
<path d="M237.12 72.3169L235.453 74.18L235.505 74.226L235.558 74.2691L237.12 72.3169ZM235.172 71.25L235.803 68.831L235.791 68.8277L235.778 68.8246L235.172 71.25ZM222.462 70.8789H219.962V73.3789H222.462V70.8789ZM222.462 63.2715V60.7715H219.962V63.2715H222.462ZM268.06 63.2715L270.556 63.4085L270.701 60.7715H268.06V63.2715ZM267.643 70.8789V73.3789H270.009L270.139 71.0159L267.643 70.8789ZM255.211 71.7139L253.342 70.053L253.316 70.0828L253.29 70.1134L255.211 71.7139ZM254.098 73.5693L256.361 74.6304L256.388 74.5738L256.412 74.5159L254.098 73.5693ZM239.718 227.202L237.977 225.408L237.97 225.414L239.718 227.202ZM227.889 236.108L226.757 233.88L226.749 233.883L226.742 233.887L227.889 236.108ZM205.392 236.062L206.759 233.969L206.746 233.961L206.734 233.953L205.392 236.062ZM202.887 224.512L204.899 225.996L204.903 225.99L202.887 224.512ZM218.009 221.775L215.958 223.204L215.972 223.225L215.987 223.245L218.009 221.775ZM220.235 224.883L222.287 223.454L222.282 223.448L222.278 223.441L220.235 224.883ZM225.663 231.047C228.363 231.047 230.768 230.097 232.769 228.267C234.715 226.486 236.187 223.96 237.301 220.903C239.517 214.816 240.548 205.962 240.548 194.546H235.548C235.548 205.798 234.514 213.944 232.603 219.191C231.652 221.801 230.544 223.525 229.393 224.578C228.298 225.581 227.091 226.047 225.663 226.047V231.047ZM240.548 194.546V77.6978H235.548V194.546H240.548ZM240.548 77.6978C240.548 76.0929 240.469 74.7091 240.28 73.6084C240.185 73.0584 240.049 72.502 239.843 71.9923C239.648 71.5111 239.307 70.865 238.682 70.3647L235.558 74.2691C235.242 74.0162 235.172 73.7798 235.209 73.8708C235.234 73.9331 235.292 74.1112 235.352 74.458C235.472 75.1509 235.548 76.2102 235.548 77.6978H240.548ZM238.787 70.4538C237.925 69.6828 236.926 69.124 235.803 68.831L234.541 73.669C234.84 73.7471 235.14 73.8996 235.453 74.18L238.787 70.4538ZM235.778 68.8246C234.447 68.4918 232.247 68.3789 229.466 68.3789V73.3789C232.314 73.3789 233.918 73.5134 234.566 73.6754L235.778 68.8246ZM229.466 68.3789H222.462V73.3789H229.466V68.3789ZM224.962 70.8789V63.2715H219.962V70.8789H224.962ZM222.462 65.7715H268.06V60.7715H222.462V65.7715ZM265.564 63.1345L265.146 70.7419L270.139 71.0159L270.556 63.4085L265.564 63.1345ZM267.643 68.3789H261.566V73.3789H267.643V68.3789ZM261.566 68.3789C259.654 68.3789 258.063 68.4489 256.845 68.6089C256.24 68.6885 255.65 68.7998 255.126 68.9672C254.677 69.1104 253.922 69.4006 253.342 70.053L257.079 73.3748C256.747 73.7488 256.442 73.7955 256.647 73.73C256.777 73.6886 257.043 73.626 257.496 73.5663C258.397 73.4481 259.736 73.3789 261.566 73.3789V68.3789ZM253.29 70.1134C252.66 70.8695 252.158 71.7091 251.784 72.6228L256.412 74.5159C256.594 74.0689 256.834 73.6716 257.131 73.3143L253.29 70.1134ZM251.834 72.5083C251.428 73.3742 251.218 74.4467 251.092 75.5325C250.961 76.6669 250.902 78.0306 250.902 79.5996H255.902C255.902 78.138 255.958 76.9814 256.059 76.1057C256.166 75.1813 256.303 74.754 256.361 74.6304L251.834 72.5083ZM250.902 79.5996V190.371H255.902V79.5996H250.902ZM250.902 190.371C250.902 196.954 250.548 202.091 249.874 205.84L254.796 206.724C255.544 202.556 255.902 197.086 255.902 190.371H250.902ZM249.874 205.84C249.209 209.545 248.049 212.731 246.432 215.436L250.723 218.002C252.693 214.707 254.039 210.935 254.796 206.724L249.874 205.84ZM246.432 215.436C244.799 218.167 242.02 221.487 237.977 225.408L241.458 228.997C245.642 224.939 248.769 221.27 250.723 218.002L246.432 215.436ZM237.97 225.414C233.978 229.316 230.238 232.11 226.757 233.88L229.022 238.337C233.085 236.272 237.231 233.128 241.465 228.99L237.97 225.414ZM226.742 233.887C223.312 235.658 219.761 236.531 216.061 236.531V241.531C220.586 241.531 224.921 240.455 229.036 238.33L226.742 233.887ZM216.061 236.531C212.4 236.531 209.332 235.65 206.759 233.969L204.025 238.155C207.512 240.433 211.557 241.531 216.061 241.531V236.531ZM206.734 233.953C203.791 232.08 203.299 230.783 203.299 230.217H198.299C198.299 233.548 200.869 236.147 204.049 238.171L206.734 233.953ZM203.299 230.217C203.299 228.944 203.752 227.55 204.899 225.996L200.875 223.028C199.238 225.246 198.299 227.656 198.299 230.217H203.299ZM204.903 225.99C206.092 224.369 207.481 223.05 209.073 222.016L206.348 217.823C204.23 219.201 202.403 220.944 200.871 223.033L204.903 225.99ZM209.073 222.016C210.801 220.892 211.846 220.61 212.35 220.61V215.61C210.379 215.61 208.331 216.534 206.348 217.823L209.073 222.016ZM212.35 220.61C213.024 220.61 213.553 220.796 214.029 221.161L217.071 217.193C215.693 216.136 214.087 215.61 212.35 215.61V220.61ZM214.029 221.161C214.74 221.706 215.384 222.381 215.958 223.204L220.06 220.345C219.211 219.127 218.216 218.071 217.071 217.193L214.029 221.161ZM215.987 223.245C216.722 224.256 217.457 225.283 218.193 226.325L222.278 223.441C221.529 222.38 220.78 221.335 220.031 220.304L215.987 223.245ZM218.184 226.311C220.084 229.041 222.55 231.047 225.663 231.047V226.047C224.94 226.047 223.788 225.61 222.287 223.454L218.184 226.311ZM284.203 125.894L286.179 127.424L286.183 127.42L284.203 125.894ZM328.409 123.11L330.68 122.065L330.675 122.053L328.409 123.11ZM332.955 177.754L331.083 179.41L331.091 179.42L331.099 179.429L332.955 177.754ZM342.093 182.764L341.435 185.176L341.441 185.177L342.093 182.764ZM341.397 186.938L342.691 189.078L342.699 189.073L342.708 189.068L341.397 186.938ZM330.682 193.247L329.244 195.292L330.206 195.968L331.34 195.659L330.682 193.247ZM324.513 188.005L326.411 186.378L326.4 186.365L326.388 186.352L324.513 188.005ZM317.972 179.934L319.949 178.404L317.926 175.789L315.961 178.449L317.972 179.934ZM307.953 188.608L309.181 190.786L309.186 190.783L307.953 188.608ZM284.017 188.748L282.662 190.848L282.665 190.851L284.017 188.748ZM297.098 152.612L298.129 154.89L298.134 154.887L297.098 152.612ZM316.441 148.577V151.077H318.941V148.577H316.441ZM313.194 126.265L311.577 128.171L311.583 128.176L313.194 126.265ZM292.506 125.754L293.746 127.925L293.753 127.921L292.506 125.754ZM288.331 129.558L286.074 128.483L285.704 129.26L285.891 130.1L288.331 129.558ZM289.12 132.666L286.709 133.329L286.712 133.338L289.12 132.666ZM287.96 141.433L286.623 139.32L286.613 139.327L286.604 139.333L287.96 141.433ZM294.269 179.146L292.501 180.913L292.516 180.928L292.531 180.943L294.269 179.146ZM308.602 181.14L307.933 178.731L307.921 178.735L308.602 181.14ZM314.911 176.826L312.812 175.468L312.801 175.485L312.791 175.501L314.911 176.826ZM316.441 153.726H318.941V151.226H316.441V153.726ZM298.026 159.802L299.676 161.68L299.677 161.68L298.026 159.802ZM284.156 140.371C283.449 140.371 283.18 140.164 282.951 139.809C282.601 139.268 282.25 138.136 282.25 136.052H277.25C277.25 138.514 277.633 140.792 278.752 142.523C279.992 144.442 281.925 145.371 284.156 145.371V140.371ZM282.25 136.052C282.25 133.927 283.347 131.082 286.179 127.424L282.226 124.363C279.12 128.374 277.25 132.302 277.25 136.052H282.25ZM286.183 127.42C291.248 120.848 299.944 117.261 313.009 117.261V112.261C299.107 112.261 288.599 116.095 282.223 124.367L286.183 127.42ZM313.009 117.261C316.553 117.261 319.315 117.905 321.419 119.046C323.49 120.168 325.059 121.843 326.144 124.168L330.675 122.053C329.162 118.811 326.865 116.311 323.802 114.65C320.773 113.008 317.133 112.261 313.009 112.261V117.261ZM326.138 124.156C326.854 125.711 327.254 127.628 327.254 129.976H332.254C332.254 127.066 331.758 124.406 330.68 122.065L326.138 124.156ZM327.254 129.976V165.508H332.254V129.976H327.254ZM327.254 165.508C327.254 171.438 328.329 176.297 331.083 179.41L334.828 176.097C333.314 174.386 332.254 171.082 332.254 165.508H327.254ZM331.099 179.429C333.536 182.128 337.073 183.986 341.435 185.176L342.751 180.352C338.949 179.315 336.394 177.833 334.811 176.079L331.099 179.429ZM341.441 185.177C341.61 185.223 341.707 185.263 341.75 185.284C341.795 185.306 341.76 185.296 341.689 185.231C341.613 185.16 341.506 185.036 341.424 184.853C341.34 184.667 341.31 184.486 341.31 184.341H346.31C346.31 183.234 345.846 182.26 345.072 181.549C344.376 180.909 343.519 180.559 342.746 180.35L341.441 185.177ZM341.31 184.341C341.31 183.797 341.59 183.614 341.375 183.846C341.19 184.045 340.799 184.371 340.087 184.809L342.708 189.068C343.604 188.516 344.419 187.915 345.039 187.248C345.627 186.614 346.31 185.626 346.31 184.341H341.31ZM340.104 184.799C336.705 186.854 334.121 188.402 332.348 189.446C331.459 189.969 330.786 190.359 330.32 190.621C330.084 190.752 329.918 190.843 329.81 190.899C329.592 191.012 329.756 190.908 330.024 190.835L331.34 195.659C331.693 195.563 332.044 195.373 332.112 195.337C332.291 195.244 332.513 195.123 332.767 194.981C333.278 194.694 333.987 194.283 334.884 193.755C336.683 192.696 339.287 191.136 342.691 189.078L340.104 184.799ZM332.12 191.202C329.373 189.27 327.511 187.662 326.411 186.378L322.615 189.632C324.112 191.379 326.363 193.266 329.244 195.292L332.12 191.202ZM326.388 186.352C324.833 184.588 322.691 181.947 319.949 178.404L315.995 181.464C318.758 185.034 320.976 187.774 322.637 189.658L326.388 186.352ZM315.961 178.449C313.657 181.569 310.594 184.236 306.719 186.434L309.186 190.783C313.599 188.28 317.216 185.165 319.983 181.42L315.961 178.449ZM306.725 186.431C302.805 188.641 299.638 189.587 297.145 189.587V194.587C300.836 194.587 304.874 193.215 309.181 190.786L306.725 186.431ZM297.145 189.587C294.212 189.587 291.94 189.318 290.26 188.846L288.907 193.659C291.185 194.3 293.954 194.587 297.145 194.587V189.587ZM290.26 188.846C288.52 188.356 286.892 187.624 285.369 186.645L282.665 190.851C284.605 192.098 286.688 193.035 288.907 193.659L290.26 188.846ZM285.372 186.647C282.33 184.684 280.765 181.781 280.765 177.522H275.765C275.765 183.282 278.034 187.863 282.662 190.848L285.372 186.647ZM280.765 177.522C280.765 173.079 282.224 168.849 285.275 164.781L281.275 161.781C277.646 166.62 275.765 171.884 275.765 177.522H280.765ZM285.275 164.781C288.325 160.715 292.575 157.404 298.129 154.89L296.067 150.335C289.87 153.14 284.905 156.942 281.275 161.781L285.275 164.781ZM298.134 154.887C303.691 152.356 309.782 151.077 316.441 151.077V146.077C309.123 146.077 302.318 147.487 296.062 150.337L298.134 154.887ZM318.941 148.577V137.166H313.941V148.577H318.941ZM318.941 137.166C318.941 131.603 317.878 126.943 314.806 124.353L311.583 128.176C312.84 129.236 313.941 131.842 313.941 137.166H318.941ZM314.812 124.358C312.208 122.149 308.86 121.167 305.03 121.167V126.167C308.004 126.167 310.099 126.917 311.577 128.171L314.812 124.358ZM305.03 121.167C301.587 121.167 298.723 121.37 296.508 121.82L297.503 126.72C299.246 126.366 301.732 126.167 305.03 126.167V121.167ZM296.508 121.82C294.425 122.243 292.621 122.804 291.258 123.588L293.753 127.921C294.432 127.53 295.627 127.101 297.503 126.72L296.508 121.82ZM291.266 123.584C288.946 124.909 287.021 126.495 286.074 128.483L290.588 130.633C290.879 130.023 291.736 129.074 293.746 127.925L291.266 123.584ZM285.891 130.1C286.088 130.99 286.363 132.07 286.709 133.329L291.53 132.003C291.196 130.789 290.945 129.796 290.772 129.016L285.891 130.1ZM286.712 133.338C287.457 136.007 287.733 137.593 287.733 138.325H292.733C292.733 136.831 292.267 134.644 291.528 131.994L286.712 133.338ZM287.733 138.325C287.733 138.273 287.762 138.304 287.647 138.461C287.511 138.647 287.214 138.947 286.623 139.32L289.297 143.546C291.078 142.419 292.733 140.725 292.733 138.325H287.733ZM286.604 139.333C285.278 140.189 284.5 140.371 284.156 140.371V145.371C285.915 145.371 287.673 144.594 289.316 143.533L286.604 139.333ZM289.032 172.651C289.032 175.841 290.223 178.636 292.501 180.913L296.036 177.378C294.665 176.006 294.032 174.471 294.032 172.651H289.032ZM292.531 180.943C294.933 183.265 298.04 184.336 301.598 184.336V179.336C299.094 179.336 297.315 178.613 296.006 177.348L292.531 180.943ZM301.598 184.336C304.709 184.336 307.314 184.103 309.283 183.546L307.921 178.735C306.612 179.105 304.547 179.336 301.598 179.336V184.336ZM309.271 183.549C311.115 183.037 312.745 182.342 314.035 181.385L311.055 177.37C310.428 177.835 309.429 178.316 307.933 178.731L309.271 183.549ZM314.035 181.385C315.238 180.492 316.243 179.412 317.031 178.151L312.791 175.501C312.342 176.22 311.769 176.84 311.055 177.37L314.035 181.385ZM317.01 178.184C318.315 176.168 318.941 173.878 318.941 171.399H313.941C313.941 173.001 313.548 174.33 312.812 175.468L317.01 178.184ZM318.941 171.399V153.726H313.941V171.399H318.941ZM316.441 151.226C308.322 151.226 301.545 153.379 296.375 157.925L299.677 161.68C303.722 158.123 309.222 156.226 316.441 156.226V151.226ZM296.376 157.924C291.63 162.094 289.032 167.02 289.032 172.651H294.032C294.032 168.758 295.763 165.118 299.676 161.68L296.376 157.924ZM350.443 118.564L350.045 116.096L347.873 116.446L347.944 118.646L350.443 118.564ZM377.208 112.859H379.708V109.591L376.554 110.446L377.208 112.859ZM378.878 183.042L379.815 180.724L379.8 180.718L379.784 180.712L378.878 183.042ZM392.423 183.923H394.923V181.423H392.423V183.923ZM392.423 190V192.5H394.923V190H392.423ZM351.185 190H348.685V192.5H351.185V190ZM351.185 183.923V181.423H348.685V183.923H351.185ZM362.457 183.135L364.124 184.998L364.145 184.979L364.165 184.96L362.457 183.135ZM363.292 123.992L361.039 125.076L361.048 125.093L361.056 125.11L363.292 123.992ZM350.628 124.27L348.13 124.351L348.225 127.29L351.11 126.723L350.628 124.27ZM367.467 82.4292L365.546 84.0297L365.558 84.0441L365.571 84.0584L367.467 82.4292ZM367.699 72.0386L365.973 70.2296L367.699 72.0386ZM377.579 72.1777L375.865 73.9975L375.871 74.0036L375.878 74.0097L377.579 72.1777ZM377.533 82.4756L375.778 80.6953L375.771 80.7016L375.765 80.7078L377.533 82.4756ZM350.841 121.033C360.321 119.505 369.328 117.585 377.862 115.272L376.554 110.446C368.203 112.71 359.367 114.594 350.045 116.096L350.841 121.033ZM374.708 112.859V178.774H379.708V112.859H374.708ZM374.708 178.774C374.708 180.133 374.859 181.441 375.297 182.561C375.755 183.731 376.593 184.836 377.972 185.372L379.784 180.712C380.05 180.815 380.053 180.992 379.954 180.739C379.835 180.437 379.708 179.828 379.708 178.774H374.708ZM377.941 185.36C379.038 185.803 380.564 186.044 382.279 186.194C384.065 186.349 386.309 186.423 388.99 186.423V181.423C386.383 181.423 384.298 181.351 382.713 181.212C381.057 181.068 380.172 180.868 379.815 180.724L377.941 185.36ZM388.99 186.423H392.423V181.423H388.99V186.423ZM389.923 183.923V190H394.923V183.923H389.923ZM392.423 187.5H351.185V192.5H392.423V187.5ZM353.685 190V183.923H348.685V190H353.685ZM351.185 186.423H352.901V181.423H351.185V186.423ZM352.901 186.423C355.816 186.423 358.138 186.358 359.833 186.218C360.675 186.148 361.424 186.056 362.041 185.927C362.349 185.863 362.675 185.779 362.986 185.663C363.263 185.56 363.712 185.366 364.124 184.998L360.79 181.272C360.937 181.141 361.064 181.066 361.128 181.031C361.196 180.994 361.24 180.978 361.244 180.976C361.246 180.975 361.181 180.998 361.018 181.033C360.691 181.101 360.173 181.173 359.422 181.235C357.931 181.358 355.769 181.423 352.901 181.423V186.423ZM364.165 184.96C365.697 183.527 366.395 181.64 366.395 179.563H361.395C361.395 180.455 361.134 180.949 360.749 181.309L364.165 184.96ZM366.395 179.563V128.816H361.395V179.563H366.395ZM366.395 128.816C366.395 127.551 366.343 126.434 366.225 125.491C366.113 124.593 365.919 123.656 365.528 122.874L361.056 125.11C361.051 125.099 361.084 125.165 361.13 125.352C361.175 125.532 361.222 125.781 361.264 126.111C361.347 126.776 361.395 127.669 361.395 128.816H366.395ZM365.544 122.907C364.525 120.79 362.366 120.239 360.555 120.239V125.239C360.791 125.239 360.965 125.257 361.086 125.279C361.207 125.3 361.26 125.323 361.266 125.326C361.268 125.327 361.227 125.307 361.17 125.254C361.112 125.198 361.067 125.133 361.039 125.076L365.544 122.907ZM360.555 120.239C358.837 120.239 355.264 120.812 350.147 121.817L351.11 126.723C356.384 125.687 359.428 125.239 360.555 125.239V120.239ZM353.127 124.189L352.942 118.483L347.944 118.646L348.13 124.351L353.127 124.189ZM372.291 83.2227C372.313 83.2227 372.069 83.2249 371.497 82.8346C370.938 82.453 370.226 81.8042 369.363 80.8L365.571 84.0584C366.594 85.2499 367.629 86.2477 368.678 86.964C369.714 87.6715 370.94 88.2227 372.291 88.2227V83.2227ZM369.387 80.8287C367.57 78.6478 367.184 77.4397 367.184 77.002H362.184C362.184 79.3474 363.653 81.7574 365.546 84.0297L369.387 80.8287ZM367.184 77.002C367.184 76.7203 367.478 75.7041 369.424 73.8476L365.973 70.2296C363.899 72.2076 362.184 74.5004 362.184 77.002H367.184ZM369.424 73.8476C370.352 72.9623 371.106 72.3785 371.693 72.029C372.305 71.6637 372.554 71.6626 372.523 71.6626V66.6626C371.286 66.6626 370.128 67.1408 369.132 67.7342C368.111 68.3433 367.055 69.1975 365.973 70.2296L369.424 73.8476ZM372.523 71.6626C372.499 71.6626 372.773 71.669 373.434 72.0636C374.065 72.4395 374.872 73.0623 375.865 73.9975L379.293 70.358C378.152 69.2831 377.05 68.3983 375.995 67.7692C374.971 67.1587 373.783 66.6626 372.523 66.6626V71.6626ZM375.878 74.0097C376.872 74.9327 377.523 75.6962 377.911 76.3003C378.308 76.9191 378.326 77.2084 378.326 77.2339H383.326C383.326 75.8987 382.803 74.665 382.118 73.5984C381.424 72.5171 380.451 71.4329 379.28 70.3458L375.878 74.0097ZM378.326 77.2339C378.326 77.2231 378.328 77.295 378.266 77.4694C378.203 77.6446 378.088 77.8907 377.886 78.2116C377.477 78.8627 376.798 79.6889 375.778 80.6953L379.288 84.2558C380.463 83.0975 381.431 81.9678 382.12 80.8717C382.792 79.8019 383.326 78.5617 383.326 77.2339H378.326ZM375.765 80.7078C374.759 81.7134 373.934 82.3821 373.282 82.7856C372.961 82.9845 372.714 83.0991 372.537 83.1614C372.361 83.2234 372.285 83.2227 372.291 83.2227V88.2227C373.61 88.2227 374.845 87.6992 375.915 87.0362C377.011 86.3573 378.141 85.4025 379.3 84.2434L375.765 80.7078ZM435.794 182.578V180.078H433.231L433.295 182.641L435.794 182.578ZM448.829 174.043L446.549 173.018L446.545 173.028L448.829 174.043ZM454.627 161.101L452.348 160.075L452.345 160.081L454.627 161.101ZM463.626 141.108L465.906 142.134L465.908 142.131L463.626 141.108ZM475.641 114.529L477.909 115.58L477.914 115.57L475.641 114.529ZM478.053 109.148L480.354 110.124L478.053 109.148ZM479.491 105.808L481.782 106.807L481.793 106.783L481.803 106.758L479.491 105.808ZM498.834 58.7256V56.2256H497.158L496.522 57.7755L498.834 58.7256ZM502.823 58.7256L505.158 57.8308L504.542 56.2256H502.823V58.7256ZM531.908 131.321L529.597 132.275L529.597 132.276L531.908 131.321ZM555.147 181.697L554.117 183.975L554.127 183.979L554.137 183.983L555.147 181.697ZM563.451 182.578L565.95 182.641L566.014 180.078H563.451V182.578ZM563.265 190V192.5H565.703L565.764 190.062L563.265 190ZM519.94 190L517.441 189.938L517.377 192.5H519.94V190ZM520.125 182.578V180.078H517.687L517.626 182.516L520.125 182.578ZM532.372 182.207L532.874 184.656L532.904 184.65L532.934 184.643L532.372 182.207ZM533.299 177.104L530.965 177.999L530.976 178.029L530.989 178.059L533.299 177.104ZM532.279 174.414L534.628 173.56L534.612 173.516L534.595 173.472L532.279 174.414ZM518.224 139.856L520.539 138.914L519.906 137.356H518.224V139.856ZM474.156 139.856V137.356H472.539L471.876 138.831L474.156 139.856ZM459.127 173.301L456.847 172.276L456.83 172.314L456.814 172.352L459.127 173.301ZM458.663 182.068L457.827 184.424L457.839 184.428L457.85 184.432L458.663 182.068ZM472.811 182.578H475.311V180.078H472.811V182.578ZM472.811 190V192.5H475.311V190H472.811ZM435.98 190L433.481 190.062L433.542 192.5H435.98V190ZM477.774 131.46L475.475 130.479L473.989 133.96H477.774V131.46ZM515.023 131.46V133.96H518.719L517.343 130.529L515.023 131.46ZM496.979 86.4648L499.299 85.5343L497.05 79.9276L494.679 85.4835L496.979 86.4648ZM435.794 185.078H438.067V180.078H435.794V185.078ZM438.067 185.078C439.894 185.078 441.539 184.922 442.949 184.558C444.348 184.196 445.677 183.587 446.677 182.559L443.095 179.071C442.951 179.219 442.572 179.491 441.698 179.717C440.834 179.94 439.643 180.078 438.067 180.078V185.078ZM446.677 182.559C448.158 181.039 449.62 178.418 451.114 175.058L446.545 173.028C445.069 176.347 443.903 178.241 443.095 179.071L446.677 182.559ZM451.109 175.068C452.626 171.695 454.559 167.379 456.91 162.121L452.345 160.081C449.995 165.337 448.063 169.649 446.549 173.018L451.109 175.068ZM456.907 162.128C459.288 156.839 462.288 150.175 465.906 142.134L461.347 140.082C457.729 148.123 454.729 154.787 452.348 160.075L456.907 162.128ZM465.908 142.131C469.526 134.06 472.138 128.249 473.744 124.697L469.188 122.637C467.578 126.197 464.963 132.014 461.345 140.086L465.908 142.131ZM473.744 124.697C475.35 121.145 476.738 118.107 477.909 115.58L473.372 113.478C472.193 116.023 470.798 119.076 469.188 122.637L473.744 124.697ZM477.914 115.57C479.088 113.004 479.906 111.181 480.354 110.124L475.751 108.172C475.334 109.156 474.543 110.92 473.368 113.488L477.914 115.57ZM480.354 110.124C480.783 109.113 481.259 108.007 481.782 106.807L477.199 104.809C476.671 106.021 476.188 107.142 475.751 108.172L480.354 110.124ZM481.803 106.758L501.146 59.6756L496.522 57.7755L477.178 104.858L481.803 106.758ZM498.834 61.2256H502.823V56.2256H498.834V61.2256ZM500.489 59.6204C508.168 79.6548 517.872 103.874 529.597 132.275L534.219 130.367C522.503 101.99 512.817 77.8127 505.158 57.8308L500.489 59.6204ZM529.597 132.276C535.458 146.456 540.011 157.388 543.254 165.066C546.464 172.667 548.451 177.225 549.138 178.513L553.55 176.16C552.999 175.128 551.128 170.858 547.86 163.12C544.624 155.46 540.078 144.543 534.218 130.366L529.597 132.276ZM549.138 178.513C550.443 180.961 552.041 183.035 554.117 183.975L556.178 179.419C555.656 179.183 554.718 178.351 553.55 176.16L549.138 178.513ZM554.137 183.983C555.919 184.771 558.137 185.078 560.621 185.078V180.078C558.466 180.078 557.036 179.798 556.158 179.41L554.137 183.983ZM560.621 185.078H563.451V180.078H560.621V185.078ZM560.951 182.516L560.766 189.938L565.764 190.062L565.95 182.641L560.951 182.516ZM563.265 187.5H519.94V192.5H563.265V187.5ZM522.439 190.062L522.625 182.641L517.626 182.516L517.441 189.938L522.439 190.062ZM520.125 185.078H525.831V180.078H520.125V185.078ZM525.831 185.078C528.972 185.078 531.389 184.961 532.874 184.656L531.869 179.758C530.942 179.948 528.998 180.078 525.831 180.078V185.078ZM532.934 184.643C533.824 184.437 534.788 184.036 535.54 183.246C536.342 182.402 536.681 181.35 536.681 180.305H531.681C531.681 180.297 531.682 180.223 531.724 180.11C531.768 179.993 531.837 179.884 531.917 179.8C532.066 179.643 532.125 179.698 531.809 179.771L532.934 184.643ZM536.681 180.305C536.681 179.065 536.211 177.605 535.61 176.15L530.989 178.059C531.563 179.449 531.681 180.123 531.681 180.305H536.681ZM535.634 176.21C535.074 174.749 534.743 173.875 534.628 173.56L529.929 175.268C530.062 175.633 530.411 176.554 530.965 177.999L535.634 176.21ZM534.595 173.472L520.539 138.914L515.908 140.798L529.963 175.356L534.595 173.472ZM518.224 137.356H474.156V142.356H518.224V137.356ZM471.876 138.831L456.847 172.276L461.407 174.326L476.437 140.881L471.876 138.831ZM456.814 172.352C456.162 173.943 455.652 175.339 455.303 176.525C454.965 177.668 454.725 178.782 454.725 179.749H459.725C459.725 179.509 459.802 178.945 460.098 177.939C460.383 176.976 460.824 175.751 461.44 174.249L456.814 172.352ZM454.725 179.749C454.725 180.669 454.907 181.659 455.46 182.55C456.034 183.476 456.88 184.088 457.827 184.424L459.499 179.712C459.48 179.705 459.511 179.713 459.564 179.755C459.621 179.798 459.672 179.855 459.709 179.916C459.783 180.034 459.725 180.034 459.725 179.749H454.725ZM457.85 184.432C458.656 184.709 459.694 184.854 460.794 184.943C461.945 185.035 463.359 185.078 465.018 185.078V180.078C463.43 180.078 462.162 180.036 461.194 179.959C460.176 179.877 459.659 179.767 459.476 179.704L457.85 184.432ZM465.018 185.078H472.811V180.078H465.018V185.078ZM470.311 182.578V190H475.311V182.578H470.311ZM472.811 187.5H435.98V192.5H472.811V187.5ZM438.479 189.938L438.294 182.516L433.295 182.641L433.481 190.062L438.479 189.938ZM477.774 133.96H515.023V128.96H477.774V133.96ZM517.343 130.529L499.299 85.5343L494.658 87.3954L512.703 132.39L517.343 130.529ZM494.679 85.4835L475.475 130.479L480.074 132.441L499.278 87.4462L494.679 85.4835ZM571.754 124.641H569.254V127.663L572.222 127.097L571.754 124.641ZM571.754 118.75L571.398 116.275L569.254 116.584V118.75H571.754ZM593.509 114.482L594.046 116.924L594.049 116.923L593.509 114.482ZM598.333 113.416L600.829 113.559L601.019 110.261L597.794 110.975L598.333 113.416ZM597.962 127.285H595.462V131.471L599.148 129.486L597.962 127.285ZM605.152 122.183L606.548 124.257L606.557 124.251L605.152 122.183ZM610.719 118.843L611.902 121.045L611.915 121.038L611.928 121.031L610.719 118.843ZM630.572 116.152L629.535 118.427L629.559 118.438L629.583 118.448L630.572 116.152ZM634.747 118.796L632.979 120.564L633.007 120.592L633.035 120.619L634.747 118.796ZM637.438 122.275L635.264 123.51L635.277 123.533L635.29 123.556L637.438 122.275ZM639.571 127.1L637.149 127.718L638.075 131.344L641.07 129.101L639.571 127.1ZM656.827 116.663L656.102 114.27L656.096 114.272L656.827 116.663ZM677.052 118.101L675.552 120.101L675.58 120.121L675.608 120.142L677.052 118.101ZM680.299 121.58L678.184 122.913L678.194 122.929L678.205 122.945L680.299 121.58ZM682.386 125.754L680.02 126.561L680.028 126.585L680.037 126.609L682.386 125.754ZM683.546 130.532L681.074 130.909L681.077 130.926L681.08 130.943L683.546 130.532ZM685.865 183.274L686.867 180.984L686.847 180.975L686.827 180.966L685.865 183.274ZM696.581 183.923H699.081V181.423H696.581V183.923ZM696.581 190V192.5H699.081V190H696.581ZM659.703 190H657.203V192.5H659.703V190ZM659.703 183.923V181.423H657.203V183.923H659.703ZM669.166 183.32L669.995 185.679L670.013 185.673L670.03 185.666L669.166 183.32ZM664.435 126.172L663.711 128.565L663.729 128.57L663.748 128.576L664.435 126.172ZM652.931 126.218L652.427 123.77L652.419 123.771L652.931 126.218ZM647.643 127.795L646.664 125.495L646.655 125.499L646.646 125.503L647.643 127.795ZM640.499 131.877L638.969 129.901L637.83 130.782L638.021 132.209L640.499 131.877ZM644.488 183.784L644.212 186.269L644.252 186.273L644.292 186.276L644.488 183.784ZM652.467 183.923H654.967V181.423H652.467V183.923ZM652.467 190V192.5H654.967V190H652.467ZM616.378 190L613.879 190.076L613.953 192.5H616.378V190ZM616.192 183.923V181.423H613.615L613.694 184L616.192 183.923ZM625.099 129.187L623.129 130.727L623.14 130.741L623.151 130.755L625.099 129.187ZM598.333 131.692L596.971 129.596L595.833 130.335V131.692H598.333ZM599.215 183.135L598.351 185.481L598.37 185.488L598.389 185.494L599.215 183.135ZM601.441 183.691L601.002 186.152L601.034 186.158L601.067 186.163L601.441 183.691ZM609.374 183.923H611.874V181.423H609.374V183.923ZM609.374 190V192.5H611.874V190H609.374ZM572.311 190L569.812 190.076L569.886 192.5H572.311V190ZM572.125 183.923V181.423H569.547L569.626 184L572.125 183.923ZM583.583 183.228L584.701 185.464L584.715 185.456L584.729 185.449L583.583 183.228ZM584.557 124.502L582.124 125.078L582.131 125.108L582.139 125.138L584.557 124.502ZM582.005 120.239C581.796 120.239 581.6 120.269 581.6 120.269C581.533 120.278 581.461 120.289 581.39 120.3C581.247 120.323 581.057 120.356 580.827 120.396C580.365 120.477 579.704 120.598 578.847 120.757C577.132 121.075 574.611 121.551 571.286 122.185L572.222 127.097C575.546 126.463 578.057 125.989 579.759 125.673C580.612 125.515 581.255 125.398 581.694 125.32C581.914 125.281 582.074 125.254 582.178 125.238C582.232 125.229 582.258 125.225 582.266 125.224C582.339 125.215 582.192 125.239 582.005 125.239V120.239ZM574.254 124.641V118.75H569.254V124.641H574.254ZM572.11 121.225C576.723 120.561 584.052 119.121 594.046 116.924L592.973 112.041C582.989 114.235 575.815 115.64 571.398 116.275L572.11 121.225ZM594.049 116.923L598.873 115.857L597.794 110.975L592.969 112.041L594.049 116.923ZM595.838 113.272C595.587 117.625 595.462 122.296 595.462 127.285H600.462C600.462 122.378 600.585 117.803 600.829 113.559L595.838 113.272ZM599.148 129.486C599.755 129.159 600.821 128.39 602.16 127.378L599.146 123.389C598.46 123.906 597.912 124.31 597.493 124.606C597.284 124.754 597.117 124.868 596.987 124.953C596.923 124.995 596.872 125.027 596.834 125.05C596.794 125.075 596.777 125.084 596.777 125.084L599.148 129.486ZM602.16 127.378C603.511 126.357 604.974 125.316 606.548 124.257L603.756 120.109C602.115 121.214 600.577 122.307 599.146 123.389L602.16 127.378ZM606.557 124.251C608.113 123.194 609.893 122.125 611.902 121.045L609.535 116.641C607.401 117.787 605.47 118.945 603.748 120.115L606.557 124.251ZM611.928 121.031C616.456 118.529 620.057 117.446 622.826 117.446V112.446C618.852 112.446 614.382 113.962 609.51 116.655L611.928 121.031ZM622.826 117.446C626.1 117.446 628.257 117.844 629.535 118.427L631.61 113.878C629.362 112.853 626.355 112.446 622.826 112.446V117.446ZM629.583 118.448C631.192 119.142 632.283 119.868 632.979 120.564L636.515 117.029C635.232 115.746 633.539 114.709 631.562 113.857L629.583 118.448ZM633.035 120.619C633.853 121.387 634.6 122.342 635.264 123.51L639.611 121.04C638.729 119.487 637.682 118.123 636.459 116.974L633.035 120.619ZM635.29 123.556C636.261 125.183 636.855 126.565 637.149 127.718L641.994 126.481C641.546 124.727 640.717 122.894 639.585 120.995L635.29 123.556ZM641.07 129.101C648.844 123.278 654.282 120.055 657.558 119.053L656.096 114.272C651.889 115.558 645.823 119.294 638.073 125.099L641.07 129.101ZM657.553 119.055C661.226 117.941 664.018 117.446 666.012 117.446V112.446C663.305 112.446 659.973 113.096 656.102 114.27L657.553 119.055ZM666.012 117.446C668.156 117.446 670.018 117.715 671.623 118.215L673.11 113.441C670.943 112.766 668.568 112.446 666.012 112.446V117.446ZM671.623 118.215C673.309 118.74 674.596 119.384 675.552 120.101L678.552 116.101C677.033 114.962 675.197 114.091 673.11 113.441L671.623 118.215ZM675.608 120.142C676.586 120.834 677.448 121.745 678.184 122.913L682.414 120.246C681.356 118.569 680.053 117.161 678.495 116.06L675.608 120.142ZM678.205 122.945C679.039 124.224 679.634 125.429 680.02 126.561L684.753 124.948C684.211 123.358 683.414 121.78 682.393 120.214L678.205 122.945ZM680.037 126.609C680.462 127.779 680.815 129.205 681.074 130.909L686.017 130.155C685.721 128.21 685.3 126.451 684.736 124.9L680.037 126.609ZM681.08 130.943C681.483 133.362 681.695 136.385 681.695 140.042H686.695C686.695 136.214 686.475 132.898 686.012 130.121L681.08 130.943ZM681.695 140.042V179.192H686.695V140.042H681.695ZM681.695 179.192C681.695 181.545 682.235 184.47 684.904 185.582L686.827 180.966C687.014 181.044 687.012 181.167 686.927 180.959C686.819 180.696 686.695 180.152 686.695 179.192H681.695ZM684.863 185.564C685.806 185.977 687.204 186.149 688.627 186.254C690.184 186.369 692.209 186.423 694.679 186.423V181.423C692.263 181.423 690.376 181.37 688.995 181.268C688.303 181.217 687.771 181.156 687.381 181.092C686.953 181.021 686.828 180.966 686.867 180.984L684.863 185.564ZM694.679 186.423H696.581V181.423H694.679V186.423ZM694.081 183.923V190H699.081V183.923H694.081ZM696.581 187.5H659.703V192.5H696.581V187.5ZM662.203 190V183.923H657.203V190H662.203ZM659.703 186.423C662.31 186.423 664.449 186.373 666.101 186.268C667.655 186.169 669.055 186.009 669.995 185.679L668.337 180.962C668.133 181.034 667.384 181.176 665.783 181.278C664.281 181.373 662.261 181.423 659.703 181.423V186.423ZM670.03 185.666C672.806 184.644 673.429 181.756 673.429 179.377H668.429C668.429 180.29 668.301 180.777 668.206 180.99C668.165 181.081 668.146 181.086 668.177 181.055C668.214 181.019 668.263 180.989 668.302 180.974L670.03 185.666ZM673.429 179.377V140.042H668.429V179.377H673.429ZM673.429 140.042C673.429 135.857 672.87 132.286 671.569 129.507C670.226 126.638 668.079 124.613 665.121 123.768L663.748 128.576C665.12 128.968 666.22 129.873 667.041 131.627C667.905 133.472 668.429 136.216 668.429 140.042H673.429ZM665.158 123.779C663.504 123.279 661.502 123.069 659.239 123.069V128.069C661.244 128.069 662.706 128.261 663.711 128.565L665.158 123.779ZM659.239 123.069C656.964 123.069 654.692 123.303 652.427 123.77L653.435 128.667C655.375 128.267 657.309 128.069 659.239 128.069V123.069ZM652.419 123.771C650.237 124.227 648.309 124.795 646.664 125.495L648.621 130.096C649.883 129.559 651.48 129.075 653.442 128.665L652.419 123.771ZM646.646 125.503C643.661 126.801 641.088 128.26 638.969 129.901L642.029 133.854C643.744 132.526 645.935 131.264 648.639 130.088L646.646 125.503ZM638.021 132.209C638.528 135.999 638.788 140.445 638.788 145.562H643.788C643.788 140.287 643.521 135.611 642.977 131.546L638.021 132.209ZM638.788 145.562V180.676H643.788V145.562H638.788ZM638.788 180.676C638.788 181.559 638.878 182.485 639.19 183.317C639.517 184.187 640.174 185.154 641.372 185.61L643.152 180.938C643.396 181.031 643.587 181.178 643.717 181.326C643.777 181.395 643.816 181.455 643.839 181.496C643.863 181.536 643.872 181.56 643.872 181.561C643.872 181.562 643.866 181.545 643.856 181.505C643.847 181.465 643.836 181.408 643.825 181.331C643.803 181.175 643.788 180.96 643.788 180.676H638.788ZM641.372 185.61C642.255 185.947 643.209 186.157 644.212 186.269L644.764 181.299C644.097 181.225 643.568 181.096 643.152 180.938L641.372 185.61ZM644.292 186.276C645.577 186.378 647.771 186.423 650.797 186.423V181.423C647.761 181.423 645.75 181.376 644.685 181.292L644.292 186.276ZM650.797 186.423H652.467V181.423H650.797V186.423ZM649.967 183.923V190H654.967V183.923H649.967ZM652.467 187.5H616.378V192.5H652.467V187.5ZM618.877 189.924L618.691 183.847L613.694 184L613.879 190.076L618.877 189.924ZM616.192 186.423H618.465V181.423H616.192V186.423ZM618.465 186.423C622.321 186.423 625.246 186.27 626.844 185.819L625.487 181.007C624.673 181.237 622.465 181.423 618.465 181.423V186.423ZM626.844 185.819C627.882 185.527 628.866 184.947 629.562 183.966C630.243 183.006 630.475 181.903 630.475 180.862H625.475C625.475 181.02 625.457 181.102 625.45 181.129C625.444 181.151 625.448 181.123 625.483 181.074C625.499 181.051 625.518 181.03 625.538 181.011C625.557 180.992 625.573 180.98 625.583 180.974C625.601 180.962 625.58 180.981 625.487 181.007L626.844 185.819ZM630.475 180.862V140.042H625.475V180.862H630.475ZM630.475 140.042C630.475 134.93 629.478 130.639 627.046 127.619L623.151 130.755C624.554 132.497 625.475 135.442 625.475 140.042H630.475ZM627.068 127.647C624.485 124.345 620.158 123.069 614.986 123.069V128.069C619.525 128.069 621.939 129.205 623.129 130.727L627.068 127.647ZM614.986 123.069C609.48 123.069 603.447 125.385 596.971 129.596L599.696 133.788C605.775 129.835 610.844 128.069 614.986 128.069V123.069ZM595.833 131.692V179.749H600.833V131.692H595.833ZM595.833 179.749C595.833 180.848 595.909 181.888 596.134 182.756C596.318 183.461 596.822 184.917 598.351 185.481L600.079 180.789C600.562 180.967 600.821 181.279 600.92 181.431C601.01 181.568 601.006 181.623 600.973 181.496C600.905 181.235 600.833 180.69 600.833 179.749H595.833ZM598.389 185.494C599.168 185.767 600.046 185.982 601.002 186.152L601.881 181.23C601.105 181.092 600.499 180.936 600.041 180.775L598.389 185.494ZM601.067 186.163C602.311 186.352 604.835 186.423 608.399 186.423V181.423C604.728 181.423 602.613 181.34 601.816 181.22L601.067 186.163ZM608.399 186.423H609.374V181.423H608.399V186.423ZM606.874 183.923V190H611.874V183.923H606.874ZM609.374 187.5H572.311V192.5H609.374V187.5ZM574.809 189.924L574.624 183.847L569.626 184L569.812 190.076L574.809 189.924ZM572.125 186.423H577.459V181.423H572.125V186.423ZM577.459 186.423C579.087 186.423 580.489 186.364 581.638 186.233C582.722 186.11 583.828 185.9 584.701 185.464L582.464 180.991C582.467 180.99 582.369 181.037 582.108 181.098C581.858 181.157 581.518 181.215 581.074 181.265C580.182 181.367 578.986 181.423 577.459 181.423V186.423ZM584.729 185.449C586.987 184.284 587.521 181.828 587.521 179.749H582.521C582.521 180.469 582.422 180.859 582.351 181.032C582.298 181.159 582.306 181.073 582.436 181.006L584.729 185.449ZM587.521 179.749V132.48H582.521V179.749H587.521ZM587.521 132.48C587.521 130.383 587.482 128.63 587.4 127.233C587.322 125.885 587.197 124.712 586.974 123.866L582.139 125.138C582.225 125.467 582.332 126.211 582.409 127.523C582.482 128.786 582.521 130.434 582.521 132.48H587.521ZM586.989 123.926C586.733 122.844 586.149 121.827 585.131 121.123C584.158 120.451 583.039 120.239 582.005 120.239V125.239C582.193 125.239 582.297 125.259 582.339 125.27C582.377 125.28 582.349 125.278 582.289 125.237C582.26 125.217 582.23 125.192 582.202 125.162C582.173 125.132 582.151 125.104 582.135 125.079C582.103 125.029 582.109 125.017 582.124 125.078L586.989 123.926ZM710.821 186.011L708.322 185.956L708.321 185.983V186.011H710.821ZM711.378 160.544L713.877 160.599L713.878 160.572V160.544H711.378ZM697.879 63.8281L695.39 64.0633L695.657 66.8845L698.423 66.2683L697.879 63.8281ZM697.323 57.937L696.894 55.474L694.616 55.8702L694.834 58.1722L697.323 57.937ZM724.691 52.6489H727.191V49.6021L724.203 50.1971L724.691 52.6489ZM724.691 126.172H722.191V131.03L726.144 128.206L724.691 126.172ZM726.639 124.595L725.071 122.648L725.057 122.659L725.044 122.67L726.639 124.595ZM729.747 122.136L731.278 124.113L731.286 124.106L729.747 122.136ZM733.783 119.446L735.069 121.59L735.08 121.583L733.783 119.446ZM738.885 116.802L739.865 119.102L739.868 119.101L738.885 116.802ZM766.856 117.173L765.853 119.463L765.858 119.465L766.856 117.173ZM777.804 125.151L779.734 123.562L779.733 123.561L777.804 125.151ZM771.82 182.856L773.485 184.722L773.489 184.717L771.82 182.856ZM732.855 189.722L733.731 187.38L733.723 187.377L733.716 187.375L732.855 189.722ZM724.691 131.46L723.079 129.549L722.191 130.298V131.46H724.691ZM737.911 184.016L738.495 181.585L738.491 181.584L737.911 184.016ZM754.981 183.459L754.274 181.062L754.263 181.065L754.981 183.459ZM760.223 181.326L759.055 179.115L759.047 179.12L759.038 179.125L760.223 181.326ZM768.944 172.744L771.112 173.988L771.116 173.981L771.12 173.974L768.944 172.744ZM771.356 145.422L768.924 146.002L768.925 146.007L771.356 145.422ZM758.832 127.703L757.628 129.894L757.654 129.908L757.68 129.921L758.832 127.703ZM753.822 125.615L754.536 123.22L754.535 123.219L753.822 125.615ZM713.321 186.065L713.877 160.599L708.879 160.49L708.322 185.956L713.321 186.065ZM713.878 160.544V67.4463H708.878V160.544H713.878ZM713.878 67.4463C713.878 65.4301 713.657 63.565 712.985 62.116C712.635 61.3597 712.116 60.6188 711.35 60.0678C710.559 59.4986 709.653 59.2407 708.734 59.2407V64.2407C708.696 64.2407 708.561 64.2206 708.431 64.1268C708.326 64.0513 708.358 64.0236 708.449 64.2183C708.658 64.6711 708.878 65.6587 708.878 67.4463H713.878ZM708.734 59.2407C707.95 59.2407 706.538 59.4744 704.806 59.8076C702.962 60.1622 700.468 60.6901 697.336 61.3879L698.423 66.2683C701.537 65.5746 703.976 65.0588 705.75 64.7176C706.638 64.5468 707.342 64.4231 707.872 64.3432C708.137 64.3032 708.345 64.2761 708.502 64.2595C708.67 64.2417 708.737 64.2407 708.734 64.2407V59.2407ZM700.368 63.593L699.812 57.7018L694.834 58.1722L695.39 64.0633L700.368 63.593ZM697.751 60.4C702.054 59.6517 711.208 57.8826 725.179 55.1008L724.203 50.1971C710.218 52.9817 701.126 54.738 696.894 55.474L697.751 60.4ZM722.191 52.6489V126.172H727.191V52.6489H722.191ZM726.144 128.206C726.453 127.986 727.19 127.385 728.234 126.52L725.044 122.67C724.506 123.115 724.081 123.464 723.767 123.719C723.61 123.846 723.485 123.946 723.39 124.021C723.342 124.058 723.305 124.087 723.277 124.108C723.248 124.131 723.236 124.139 723.238 124.138L726.144 128.206ZM728.207 126.542C729.31 125.653 730.334 124.844 731.278 124.113L728.217 120.159C727.243 120.913 726.195 121.743 725.071 122.648L728.207 126.542ZM731.286 124.106C732.163 123.421 733.412 122.584 735.069 121.59L732.496 117.302C730.752 118.349 729.31 119.305 728.208 120.166L731.286 124.106ZM735.08 121.583C736.722 120.586 738.316 119.761 739.865 119.102L737.906 114.502C736.114 115.265 734.307 116.203 732.485 117.309L735.08 121.583ZM739.868 119.101C743.567 117.519 747.772 116.704 752.523 116.704V111.704C747.193 111.704 742.306 112.621 737.903 114.503L739.868 119.101ZM752.523 116.704C757.226 116.704 761.661 117.625 765.853 119.463L767.86 114.883C763.021 112.762 757.901 111.704 752.523 111.704V116.704ZM765.858 119.465C770.096 121.31 773.407 123.747 775.874 126.741L779.733 123.561C776.696 119.876 772.709 116.994 767.854 114.881L765.858 119.465ZM775.874 126.741C781.103 133.091 783.746 140.711 783.746 149.736H788.746C788.746 139.65 785.761 130.881 779.734 123.562L775.874 126.741ZM783.746 149.736C783.746 162.512 779.215 172.864 770.15 180.996L773.489 184.717C783.66 175.594 788.746 163.865 788.746 149.736H783.746ZM770.155 180.991C764.048 186.442 756.421 189.216 747.096 189.216V194.216C757.501 194.216 766.356 191.084 773.485 184.722L770.155 180.991ZM747.096 189.216C741.308 189.216 736.895 188.563 733.731 187.38L731.979 192.063C735.928 193.54 741.009 194.216 747.096 194.216V189.216ZM733.716 187.375C730.335 186.134 727.665 185.194 725.719 184.561C724.749 184.245 723.932 183.998 723.284 183.826C722.738 183.681 722.034 183.511 721.444 183.511V188.511C721.287 188.511 721.383 188.495 722.004 188.659C722.524 188.797 723.242 189.013 724.173 189.316C726.031 189.92 728.633 190.835 731.994 192.069L733.716 187.375ZM721.444 183.511C720.406 183.511 719.407 183.927 718.617 184.34C717.757 184.789 716.804 185.419 715.774 186.187L718.764 190.195C719.682 189.509 720.399 189.05 720.931 188.772C721.532 188.458 721.647 188.511 721.444 188.511V183.511ZM715.774 186.187C714.866 186.864 714.147 187.317 713.6 187.59C713.01 187.885 712.819 187.871 712.909 187.871V192.871C713.957 192.871 714.972 192.494 715.836 192.062C716.742 191.609 717.723 190.971 718.764 190.195L715.774 186.187ZM712.909 187.871C713.021 187.871 713.226 187.909 713.424 188.047C713.601 188.17 713.634 188.277 713.598 188.202C713.558 188.119 713.483 187.913 713.421 187.524C713.36 187.143 713.321 186.644 713.321 186.011H708.321C708.321 187.584 708.497 189.125 709.088 190.36C709.4 191.012 709.868 191.664 710.567 192.15C711.287 192.651 712.1 192.871 712.909 192.871V187.871ZM746.539 121.956C737.069 121.956 729.168 124.412 723.079 129.549L726.303 133.371C731.285 129.168 737.949 126.956 746.539 126.956V121.956ZM722.191 131.46V171.399H727.191V131.46H722.191ZM722.191 171.399C722.191 175.209 723.553 178.5 726.27 181.093C728.913 183.615 732.689 185.34 737.331 186.448L738.491 181.584C734.32 180.589 731.486 179.16 729.722 177.476C728.032 175.864 727.191 173.897 727.191 171.399H722.191ZM737.328 186.447C739.804 187.041 742.166 187.351 744.405 187.351V182.351C742.624 182.351 740.657 182.104 738.495 181.585L737.328 186.447ZM744.405 187.351C746.518 187.351 748.428 187.255 750.125 187.056L749.54 182.09C748.083 182.261 746.375 182.351 744.405 182.351V187.351ZM750.125 187.056C751.873 186.85 753.734 186.444 755.7 185.854L754.263 181.065C752.518 181.589 750.946 181.925 749.54 182.09L750.125 187.056ZM755.689 185.857C757.728 185.255 759.637 184.481 761.408 183.527L759.038 179.125C757.593 179.903 756.007 180.55 754.274 181.062L755.689 185.857ZM761.391 183.536C763.265 182.546 765.044 181.225 766.732 179.604L763.27 175.997C761.866 177.345 760.459 178.374 759.055 179.115L761.391 183.536ZM766.732 179.604C768.453 177.952 769.913 176.078 771.112 173.988L766.775 171.5C765.81 173.183 764.642 174.68 763.27 175.997L766.732 179.604ZM771.12 173.974C773.761 169.302 775.062 164.095 775.062 158.411H770.062C770.062 163.303 768.951 167.651 766.767 171.514L771.12 173.974ZM775.062 158.411C775.062 152.989 774.655 148.443 773.787 144.837L768.925 146.007C769.665 149.081 770.062 153.194 770.062 158.411H775.062ZM773.788 144.842C772.948 141.323 771.856 138.313 770.465 135.879L766.124 138.359C767.207 140.255 768.156 142.78 768.924 146.002L773.788 144.842ZM770.465 135.879C769.112 133.511 767.478 131.413 765.56 129.598L762.123 133.229C763.669 134.692 765.003 136.398 766.124 138.359L770.465 135.879ZM765.56 129.598C763.709 127.846 761.852 126.454 759.984 125.484L757.68 129.921C759.028 130.621 760.51 131.703 762.123 133.229L765.56 129.598ZM760.035 125.511C758.299 124.558 756.465 123.795 754.536 123.22L753.107 128.011C754.704 128.487 756.21 129.115 757.628 129.894L760.035 125.511ZM754.535 123.219C751.751 122.39 749.081 121.956 746.539 121.956V126.956C748.512 126.956 750.698 127.294 753.109 128.011L754.535 123.219ZM809.996 147.046L809.699 144.564L807.644 144.809L807.502 146.874L809.996 147.046ZM809.811 149.736L807.316 149.564L807.311 149.65V149.736H809.811ZM826.788 177.568L827.698 175.24L827.698 175.24L826.788 177.568ZM845.946 178.635L845.36 176.205L845.946 178.635ZM852.394 176.409L853.512 178.645L853.519 178.641L853.527 178.637L852.394 176.409ZM857.125 173.765L855.819 171.633L855.812 171.637L855.804 171.642L857.125 173.765ZM858.563 181.372L860.201 183.26L860.209 183.254L860.217 183.247L858.563 181.372ZM851.373 186.567L850.072 184.432L850.061 184.439L851.373 186.567ZM805.357 182.393L803.516 184.083L803.523 184.091L805.357 182.393ZM805.265 125.43L803.361 123.809L803.36 123.81L805.265 125.43ZM855.501 127.1L853.548 128.66L853.549 128.661L855.501 127.1ZM859.583 140.598L858.197 138.518L858.176 138.532L858.156 138.546L859.583 140.598ZM857.682 141.34V138.84H857.533L857.385 138.858L857.682 141.34ZM810.367 140.413L807.902 140L807.345 143.319L810.684 142.892L810.367 140.413ZM843.023 136.238L843.34 138.718L846.227 138.349L845.427 135.551L843.023 136.238ZM839.127 128.538L837.14 130.054L837.144 130.061L837.149 130.067L839.127 128.538ZM834.952 123.713L836.598 121.832L836.589 121.824L836.579 121.815L834.952 123.713ZM816.629 125.986L818.493 127.653L818.5 127.645L816.629 125.986ZM807.502 146.874L807.316 149.564L812.305 149.908L812.49 147.218L807.502 146.874ZM807.311 149.736C807.311 157.127 808.79 163.463 811.921 168.596C815.069 173.756 819.773 177.512 825.878 179.897L827.698 175.24C822.485 173.203 818.7 170.109 816.189 165.992C813.661 161.847 812.311 156.478 812.311 149.736H807.311ZM825.878 179.897C829.548 181.332 833.258 182.063 836.993 182.063V177.063C833.925 177.063 830.831 176.465 827.698 175.24L825.878 179.897ZM836.993 182.063C840.539 182.063 843.727 181.741 846.531 181.066L845.36 176.205C843.031 176.766 840.251 177.063 836.993 177.063V182.063ZM846.531 181.066C849.221 180.418 851.562 179.62 853.512 178.645L851.276 174.173C849.762 174.929 847.804 175.616 845.36 176.205L846.531 181.066ZM853.527 178.637C855.341 177.714 856.982 176.798 858.446 175.887L855.804 171.642C854.484 172.463 852.971 173.31 851.26 174.18L853.527 178.637ZM858.431 175.896C860.13 174.856 861.435 174.101 862.366 173.614C862.834 173.369 863.168 173.213 863.386 173.125C863.714 172.992 863.544 173.11 863.155 173.11V168.11C862.472 168.11 861.832 168.36 861.51 168.49C861.079 168.665 860.585 168.903 860.048 169.184C858.969 169.748 857.553 170.571 855.819 171.633L858.431 175.896ZM863.155 173.11C863.342 173.11 863.023 173.155 862.675 172.807C862.327 172.459 862.372 172.14 862.372 172.327H867.372C867.372 171.369 867.131 170.192 866.21 169.272C865.29 168.351 864.113 168.11 863.155 168.11V173.11ZM862.372 172.327C862.372 172.736 862.164 173.56 861.24 174.891L865.348 177.741C866.528 176.042 867.372 174.206 867.372 172.327H862.372ZM861.24 174.891C860.347 176.179 858.93 177.714 856.909 179.497L860.217 183.247C862.401 181.319 864.139 179.484 865.348 177.741L861.24 174.891ZM856.925 179.484C854.94 181.206 852.659 182.857 850.072 184.432L852.674 188.702C855.468 187 857.98 185.187 860.201 183.26L856.925 179.484ZM850.061 184.439C844.095 188.117 837.532 189.958 830.313 189.958V194.958C838.434 194.958 845.91 192.872 852.685 188.695L850.061 184.439ZM830.313 189.958C820.481 189.958 812.866 186.82 807.192 180.694L803.523 184.091C810.28 191.386 819.302 194.958 830.313 194.958V189.958ZM807.199 180.702C801.123 174.081 798.023 165.651 798.023 155.21H793.023C793.023 166.725 796.48 176.417 803.516 184.083L807.199 180.702ZM798.023 155.21C798.023 143.453 801.139 134.142 807.169 127.049L803.36 123.81C796.402 131.994 793.023 142.536 793.023 155.21H798.023ZM807.168 127.05C813.079 120.106 820.355 116.704 829.154 116.704V111.704C818.842 111.704 810.191 115.786 803.361 123.809L807.168 127.05ZM829.154 116.704C839.069 116.704 847.142 120.637 853.548 128.66L857.455 125.54C850.131 116.368 840.638 111.704 829.154 111.704V116.704ZM853.549 128.661C856.882 132.827 858.197 136.077 858.197 138.511H863.197C863.197 134.389 861.048 130.031 857.454 125.538L853.549 128.661ZM858.197 138.511C858.197 138.562 858.192 138.582 858.192 138.578C858.193 138.577 858.194 138.571 858.198 138.561C858.201 138.552 858.206 138.54 858.213 138.529C858.219 138.517 858.225 138.507 858.232 138.498C858.238 138.489 858.243 138.484 858.244 138.482C858.249 138.477 858.237 138.491 858.197 138.518L860.97 142.678C862.412 141.717 863.197 140.238 863.197 138.511H858.197ZM858.156 138.546C857.92 138.71 857.758 138.79 857.666 138.826C857.576 138.861 857.588 138.84 857.682 138.84V143.84C858.961 143.84 860.097 143.286 861.011 142.65L858.156 138.546ZM857.385 138.858L809.699 144.564L810.293 149.528L857.979 143.823L857.385 138.858ZM810.684 142.892L843.34 138.718L842.706 133.758L810.05 137.933L810.684 142.892ZM845.427 135.551C844.536 132.431 843.092 129.578 841.105 127.008L837.149 130.067C838.749 132.136 839.903 134.416 840.62 136.925L845.427 135.551ZM841.114 127.021C839.313 124.66 837.792 122.876 836.598 121.832L833.306 125.595C834.091 126.282 835.354 127.714 837.14 130.054L841.114 127.021ZM836.579 121.815C833.714 119.359 830.265 118.152 826.371 118.152V123.152C829.156 123.152 831.428 123.985 833.325 125.612L836.579 121.815ZM826.371 118.152C822.054 118.152 818.181 120.469 814.759 124.327L818.5 127.645C821.386 124.391 824.007 123.152 826.371 123.152V118.152ZM814.766 124.319C811.214 128.29 808.977 133.581 807.902 140L812.833 140.826C813.799 135.06 815.737 130.733 818.492 127.653L814.766 124.319ZM872.247 222.703L872.415 220.208L872.331 220.203H872.247V222.703ZM877.767 223.074L877.599 225.568L877.683 225.574H877.767V223.074ZM885.56 216.58L883.551 215.091L883.546 215.098L885.56 216.58ZM898.688 193.989L900.908 195.138L900.908 195.137L898.688 193.989ZM904.393 182.949L906.614 184.097L907.177 183.007L906.66 181.895L904.393 182.949ZM880.643 131.877L878.355 132.884L878.365 132.908L878.376 132.932L880.643 131.877ZM879.298 128.955L877.016 129.976L877.027 130.001L877.039 130.025L879.298 128.955ZM878.277 126.589L875.923 127.43L875.933 127.459L875.944 127.487L878.277 126.589ZM877.35 124.873L875.19 126.133L875.222 126.187L875.256 126.239L877.35 124.873ZM876.468 123.528L874.548 125.128L874.62 125.215L874.7 125.296L876.468 123.528ZM875.448 122.693L873.929 124.679L873.967 124.708L874.006 124.735L875.448 122.693ZM874.149 122.043L873.702 124.503L873.811 124.523L873.923 124.533L874.149 122.043ZM872.433 121.765L872.038 124.234L872.045 124.235L872.052 124.236L872.433 121.765ZM867.33 121.58L864.835 121.732L864.978 124.08H867.33V121.58ZM866.959 115.503V113.003H864.302L864.464 115.655L866.959 115.503ZM903.233 115.503L905.729 115.655L905.891 113.003H903.233V115.503ZM902.862 121.58V124.08H905.214L905.358 121.732L902.862 121.58ZM894.466 122.09L895.212 124.476L895.246 124.466L895.279 124.454L894.466 122.09ZM893.214 125.801L890.789 126.407L890.807 126.481L890.83 126.554L893.214 125.801ZM893.724 127.332L891.37 128.172L891.396 128.245L891.426 128.316L893.724 127.332ZM894.513 129.233L892.197 130.177L892.219 130.229L892.243 130.281L894.513 129.233ZM895.255 130.903L892.934 131.832L892.951 131.876L892.971 131.92L895.255 130.903ZM911.397 167.178L909.113 168.194L911.4 173.332L913.682 168.192L911.397 167.178ZM923.365 140.227L921.088 139.195L921.084 139.204L921.08 139.212L923.365 140.227ZM927.865 122.09L927.17 124.491L927.199 124.5L927.229 124.508L927.865 122.09ZM918.634 121.58H916.134V124.08H918.634V121.58ZM918.634 115.503V113.003H916.134V115.503H918.634ZM949.574 115.503H952.074V113.003H949.574V115.503ZM949.574 121.58V124.08H952.074V121.58H949.574ZM941.595 121.858L942.264 124.267L942.326 124.25L942.386 124.23L941.595 121.858ZM940.296 122.183L939.806 119.731L939.78 119.736L939.754 119.742L940.296 122.183ZM938.487 123.76L936.72 121.992L936.639 122.072L936.567 122.159L938.487 123.76ZM937.699 125.105L935.482 123.949L935.462 123.987L935.443 124.026L937.699 125.105ZM936.91 126.775L934.64 125.727L934.62 125.771L934.601 125.816L936.91 126.775ZM934.776 131.692L932.499 130.661L932.499 130.661L934.776 131.692ZM905.877 195.52L908.154 196.552L908.155 196.551L905.877 195.52ZM878.695 238.057L877.714 235.757L877.702 235.762L877.691 235.767L878.695 238.057ZM867.098 236.758L865.19 238.373L865.192 238.376L867.098 236.758ZM867.052 224.651L865.305 222.862L865.294 222.873L865.284 222.883L867.052 224.651ZM872.079 225.197L877.599 225.568L877.935 220.579L872.415 220.208L872.079 225.197ZM877.767 225.574C879.641 225.574 881.357 224.593 882.823 223.371C884.34 222.107 885.923 220.305 887.574 218.061L883.546 215.098C882.012 217.184 880.703 218.629 879.622 219.53C878.491 220.472 877.903 220.574 877.767 220.574V225.574ZM887.569 218.068C890.883 213.595 895.337 205.908 900.908 195.138L896.467 192.841C890.905 203.594 886.607 210.968 883.551 215.091L887.569 218.068ZM900.908 195.137L906.614 184.097L902.172 181.801L896.467 192.841L900.908 195.137ZM906.66 181.895L882.91 130.823L878.376 132.932L902.126 184.003L906.66 181.895ZM882.931 130.871C882.578 130.068 882.119 129.071 881.557 127.885L877.039 130.025C877.59 131.189 878.028 132.141 878.355 132.884L882.931 130.871ZM881.58 127.934C881.05 126.749 880.737 126.021 880.611 125.692L875.944 127.487C876.127 127.962 876.495 128.811 877.016 129.976L881.58 127.934ZM880.632 125.749C880.377 125.037 879.941 124.269 879.444 123.507L875.256 126.239C875.686 126.899 875.868 127.276 875.923 127.43L880.632 125.749ZM879.509 123.613C879.282 123.224 879.076 122.885 878.896 122.61C878.751 122.389 878.516 122.04 878.236 121.76L874.7 125.296C874.613 125.209 874.577 125.154 874.604 125.191C874.621 125.214 874.657 125.264 874.713 125.35C874.827 125.523 874.984 125.78 875.19 126.133L879.509 123.613ZM878.389 121.927C877.995 121.455 877.393 121.006 876.889 120.65L874.006 124.735C874.24 124.901 874.405 125.026 874.514 125.115C874.568 125.159 874.597 125.185 874.608 125.195C874.622 125.209 874.595 125.185 874.548 125.128L878.389 121.927ZM876.966 120.707C876.359 120.243 875.452 119.652 874.375 119.554L873.923 124.533C873.795 124.522 873.705 124.497 873.66 124.483C873.613 124.468 873.596 124.458 873.611 124.465C873.625 124.472 873.659 124.491 873.716 124.527C873.771 124.563 873.842 124.612 873.929 124.679L876.966 120.707ZM874.596 119.584C874.219 119.515 873.617 119.418 872.813 119.294L872.052 124.236C872.856 124.36 873.398 124.448 873.702 124.503L874.596 119.584ZM872.828 119.297C871.937 119.154 871.062 119.08 870.206 119.08V124.08C870.773 124.08 871.382 124.129 872.038 124.234L872.828 119.297ZM870.206 119.08H867.33V124.08H870.206V119.08ZM869.825 121.427L869.454 115.351L864.464 115.655L864.835 121.732L869.825 121.427ZM866.959 118.003H903.233V113.003H866.959V118.003ZM900.738 115.351L900.367 121.427L905.358 121.732L905.729 115.655L900.738 115.351ZM902.862 119.08H899.615V124.08H902.862V119.08ZM899.615 119.08C897.166 119.08 895.075 119.237 893.654 119.726L895.279 124.454C895.836 124.262 897.178 124.08 899.615 124.08V119.08ZM893.721 119.704C892.969 119.938 892.152 120.336 891.508 121.041C890.815 121.799 890.482 122.74 890.482 123.713H895.482C895.482 123.791 895.469 123.913 895.414 124.058C895.359 124.204 895.279 124.326 895.198 124.415C895.049 124.578 894.974 124.551 895.212 124.476L893.721 119.704ZM890.482 123.713C890.482 124.649 890.575 125.554 890.789 126.407L895.639 125.194C895.543 124.811 895.482 124.324 895.482 123.713H890.482ZM890.83 126.554C891.022 127.161 891.202 127.702 891.37 128.172L896.078 126.491C895.937 126.095 895.777 125.615 895.598 125.048L890.83 126.554ZM891.426 128.316C891.603 128.728 891.859 129.345 892.197 130.177L896.828 128.29C896.486 127.451 896.217 126.801 896.022 126.347L891.426 128.316ZM892.243 130.281C892.616 131.09 892.837 131.591 892.934 131.832L897.576 129.975C897.425 129.597 897.152 128.985 896.783 128.186L892.243 130.281ZM892.971 131.92L909.113 168.194L913.682 166.161L897.539 129.887L892.971 131.92ZM913.682 168.192L925.65 141.242L921.08 139.212L909.113 166.163L913.682 168.192ZM925.642 141.259C927.735 136.639 929.32 132.983 930.384 130.309C930.916 128.975 931.331 127.853 931.617 126.961C931.866 126.184 932.127 125.264 932.127 124.502H927.127C927.127 124.374 927.128 124.585 926.855 125.435C926.62 126.17 926.252 127.173 925.739 128.459C924.717 131.027 923.17 134.6 921.088 139.195L925.642 141.259ZM932.127 124.502C932.127 123.483 931.895 122.394 931.205 121.45C930.503 120.489 929.518 119.94 928.501 119.672L927.229 124.508C927.315 124.53 927.329 124.546 927.301 124.528C927.287 124.519 927.265 124.504 927.24 124.481C927.215 124.457 927.19 124.43 927.168 124.4C927.147 124.37 927.131 124.343 927.121 124.322C927.112 124.302 927.109 124.291 927.109 124.293C927.111 124.3 927.127 124.363 927.127 124.502H932.127ZM928.56 119.688C926.999 119.237 924.467 119.08 921.278 119.08V124.08C924.521 124.08 926.38 124.263 927.17 124.491L928.56 119.688ZM921.278 119.08H918.634V124.08H921.278V119.08ZM921.134 121.58V115.503H916.134V121.58H921.134ZM918.634 118.003H949.574V113.003H918.634V118.003ZM947.074 115.503V121.58H952.074V115.503H947.074ZM949.574 119.08H945.028V124.08H949.574V119.08ZM945.028 119.08C944.125 119.08 943.333 119.104 942.669 119.157C942.049 119.208 941.378 119.295 940.805 119.486L942.386 124.23C942.369 124.235 942.549 124.183 943.073 124.141C943.553 124.102 944.199 124.08 945.028 124.08V119.08ZM940.926 119.449C940.389 119.598 940.025 119.687 939.806 119.731L940.787 124.634C941.186 124.554 941.688 124.427 942.264 124.267L940.926 119.449ZM939.754 119.742C938.696 119.977 937.933 120.698 937.485 121.183L941.159 124.574C941.268 124.456 941.315 124.425 941.297 124.437C941.286 124.445 941.244 124.474 941.174 124.508C941.103 124.543 940.99 124.589 940.839 124.623L939.754 119.742ZM937.485 121.183C937.118 121.581 936.868 121.844 936.72 121.992L940.255 125.528C940.478 125.305 940.784 124.98 941.159 124.574L937.485 121.183ZM936.567 122.159C936.208 122.59 935.823 123.296 935.482 123.949L939.915 126.261C940.091 125.925 940.228 125.675 940.331 125.5C940.382 125.412 940.418 125.356 940.439 125.323C940.465 125.283 940.453 125.306 940.408 125.36L936.567 122.159ZM935.443 124.026C935.101 124.741 934.833 125.31 934.64 125.727L939.18 127.823C939.359 127.436 939.616 126.891 939.954 126.184L935.443 124.026ZM934.601 125.816C933.931 127.431 933.23 129.045 932.499 130.661L937.054 132.723C937.807 131.06 938.529 129.397 939.219 127.733L934.601 125.816ZM932.499 130.661L903.6 194.489L908.155 196.551L937.054 132.723L932.499 130.661ZM903.601 194.488C897.824 207.228 892.716 217.044 888.278 223.989C886.059 227.461 884.039 230.165 882.223 232.141C880.383 234.144 878.877 235.261 877.714 235.757L879.676 240.356C881.775 239.461 883.849 237.762 885.905 235.524C887.985 233.26 890.18 230.298 892.491 226.681C897.114 219.447 902.335 209.387 908.154 196.552L903.601 194.488ZM877.691 235.767C876.299 236.378 874.625 236.716 872.618 236.716V241.716C875.188 241.716 877.566 241.282 879.699 240.346L877.691 235.767ZM872.618 236.716C871.01 236.716 869.887 236.18 869.004 235.14L865.192 238.376C867.093 240.614 869.65 241.716 872.618 241.716V236.716ZM869.007 235.143C868.106 234.079 867.557 232.605 867.557 230.496H862.557C862.557 233.519 863.368 236.22 865.19 238.373L869.007 235.143ZM867.557 230.496C867.557 228.344 868.109 227.129 868.82 226.419L865.284 222.883C863.335 224.832 862.557 227.514 862.557 230.496H867.557ZM868.799 226.439C869.592 225.665 870.662 225.203 872.247 225.203V220.203C869.565 220.203 867.171 221.039 865.305 222.862L868.799 226.439Z" fill="black"/>
<path d="M11.6869 150C11.6869 103.977 49.4414 66.656 96 66.656C142.559 66.656 180.313 103.977 180.313 150C180.313 196.023 142.559 233.344 96 233.344C49.4414 233.344 11.6869 196.023 11.6869 150Z" fill="#48C9B0"/>
<path d="M147.688 133.476L96.6797 108.312C96.2336 108.113 95.7664 108.113 95.3203 108.312L44.28 133.476C43.6959 133.739 43.3561 134.274 43.3561 134.914V144.856C43.3561 145.402 43.6322 145.906 44.1101 146.2C44.5774 146.504 45.1615 146.536 45.6394 146.305L96 121.445L146.329 146.305C146.531 146.41 146.775 146.473 147.008 146.473C147.316 146.473 147.624 146.41 147.858 146.242C148.336 145.937 148.612 145.433 148.612 144.898V134.883C148.612 134.274 148.272 133.707 147.688 133.476Z" fill="white"/>
<path d="M138.311 146.578L96 125.75L53.6895 146.578V185.21H77.1387V155.574H93.2812V185.21H138.311V146.578Z" fill="white"/>
<path d="M98.6125 155.574H109.488V166.324H98.6125V155.574Z" fill="#48C9B0"/>
</svg>
