<?xml version="1.0" encoding="utf-8"?>
<!-- Generator: Adobe Illustrator 19.2.1, SVG Export Plug-In . SVG Version: 6.00 Build 0)  -->
<svg version="1.1" id="layer" xmlns="http://www.w3.org/2000/svg" xmlns:xlink="http://www.w3.org/1999/xlink" x="0px" y="0px"
	 viewBox="0 0 652 652" style="enable-background:new 0 0 652 652;" xml:space="preserve">
<style type="text/css">
	.st0{fill-rule:evenodd;clip-rule:evenodd;fill:#ED1C24;}
	.st1{fill-rule:evenodd;clip-rule:evenodd;}
</style>
<path class="st0" d="M113.1,314.3c1.4,2.4,2.9,3.3,5.7,3.3h30.3c1.5,0,2.6-1.9,1.9-3.3l-28.9-50c-1.4-2.4-2.9-3.3-5.6-3.3H58.6
	c-1.5,0-2.6,1.9-1.9,3.3l15,26c1.4,2.4,2.9,3.3,5.7,3.3h23.8L113.1,314.3z M48,379.5c1.4,2.4,2.9,3.3,5.7,3.3h51.8
	c2.8,0,4.3-0.8,6.1-3l39.1-50.5c0.9-1.1-0.1-3-1.5-3H86.4c-2.8,0-4.3-0.9-5.7-3.3l-31.6-54.5c-0.8-1.3-2.8-1-3.3,0.2l-24.4,59
	c-1.1,2.7-0.9,4.4,0.5,6.8L48,379.5z"/>
<path class="st1" d="M532.7,351.4c1.9-1.4,2.1-4.4,0.4-6.2l-0.1-0.1c-2-1.9-4.8-2.2-7.1-0.4c-4.9,3.8-9.4,5.4-15.7,5.4
	c-12.1,0-18.7-7.7-19.4-20.6h38.8c3.6,0,6.3-2.7,6.3-6.3c0-18.7-9-29.9-27.6-29.9c-18.2,0-27.7,12.3-27.7,33c0,20.7,10.2,33,29.7,33
	C519.4,359.2,525.8,356.9,532.7,351.4 M584.6,353.1c0,2.5,2.1,4.7,4.8,4.7h0.2c2.6,0,4.7-2.1,4.7-4.8v-36.9
	c0-14.3-9.2-22.9-24.6-22.9c-13.6,0-23.6,8.6-23.6,13c0,1.3,0.4,2.5,1.2,3.4l0.3,0.2c0.9,0.9,1.9,1.3,3.2,1.3c2.1,0,3.6-1.7,5.7-3.7
	c2.5-2.5,6.6-5.2,13.2-5.2c9.2,0,14.8,5.2,14.8,13.8v3.1H568c-15.9,0-25.3,7.2-25.3,19.7c0,11.7,9,20.2,21.6,20.2
	c9,0,15.9-3.5,20.2-9.2V353.1z M566.6,350.1c-8.6,0-13.8-3.9-13.8-11.1c0-7,5.6-11,15.1-11h16.4v5.4
	C584.5,343,577.6,350.1,566.6,350.1 M193.7,293.3c-13,0-20.8,6.4-20.8,17c0,8.2,4.4,13.9,18.7,19l4.7,1.6
	c8.8,3.2,11.5,5.8,11.5,10.2c0,5.6-4.8,9-12.9,9c-6.6,0-11.8-2-16.7-6.7c-2-2-4.7-2-6.7,0l-0.1,0.1c-1.6,1.7-1.6,4.9,0,6.6
	c6.7,6.4,14,9.1,23.5,9.1c14.3,0,23-6.7,23-18.2c0-9-4.4-14-18.2-18.9l-4.6-1.7c-9.3-3.4-12.1-6.1-12.1-10.5c0-4.5,4.2-7.6,10.7-7.6
	c5.4,0,9.7,1.9,14.3,6c2,1.9,4.8,1.8,6.8-0.2l0.1-0.1c0.7-0.7,1.3-2,1.3-3.2c0-1.2-0.4-2.4-1.4-3.3
	C208.6,295.8,202.3,293.3,193.7,293.3 M360.2,377.8v-27.6c4.4,5.9,11,9.1,19.7,9.1c16.8,0,26-12.1,26-33c0-20.8-9.2-33-26-33
	c-8.7,0-15.4,3.3-19.8,9.2v-3.2c0-2.5-2.2-4.6-4.7-4.6h-0.3c-2.6,0-4.8,2.1-4.8,4.6v78.5c0,2.6,2.1,4.8,4.8,4.8h0.3
	C358.1,382.6,360.2,380.4,360.2,377.8 M329.9,353.1c0,2.5,2.1,4.7,4.8,4.7h0.2c2.6,0,4.7-2.1,4.7-4.8v-36.9
	c0-14.3-9.2-22.9-24.6-22.9c-13.6,0-23.6,8.6-23.6,13c0,1.3,0.4,2.5,1.3,3.4l0.2,0.2c0.9,0.9,1.9,1.3,3.1,1.3c2.2,0,3.7-1.7,5.7-3.7
	c2.5-2.5,6.6-5.2,13.2-5.2c9.2,0,14.8,5.2,14.8,13.8v3.1h-16.4c-15.9,0-25.3,7.2-25.3,19.7c0,11.7,9,20.2,21.6,20.2
	c9,0,15.9-3.5,20.2-9.2V353.1z M470.6,358.3c2.6,0,4.9-1.9,4.9-4.7c0-5.1-6-4.3-6-12.8V266c0-2.6-2.1-4.8-4.8-4.8h-0.2
	c-2.6,0-4.8,2.2-4.8,4.8v36.3c-4.4-5.8-11-9-19.7-9c-16.8,0-26,12.1-26,33c0,20.8,9.2,33,26,33c9.4,0,16.3-3.6,20.6-10.4
	C462.4,354.2,466.6,358.3,470.6,358.3 M312,350.1c-8.6,0-13.8-3.9-13.8-11.1c0-7,5.6-11,15.2-11h16.4v5.4
	C329.8,343,322.9,350.1,312,350.1 M236.8,353v-31.6c0-11.9,5.9-19.1,17.1-19.1c10.7,0,15.4,6.1,15.4,18.2V353c0,2.6,2.2,4.8,4.8,4.8
	h0.2c2.6,0,4.8-2.1,4.8-4.8v-32.7c0-18.3-7.1-27-23-27c-8.7,0-15.3,3.3-19.4,9.2v-3.2c0-2.5-2.2-4.6-4.7-4.6h-0.2
	c-2.7,0-4.8,2.1-4.8,4.6V353c0,2.6,2.2,4.8,4.8,4.8h0.2C234.6,357.8,236.8,355.7,236.8,353 M508.2,302.3c11.2,0,16.9,6.7,17.6,18.5
	h-34.9C492.1,309.2,497.8,302.3,508.2,302.3 M442.1,350.1c-12,0-17.9-8.9-17.9-23.9s5.9-23.9,17.9-23.9c12,0,17.9,8.9,17.9,23.4v1
	C460,341.3,454.1,350.1,442.1,350.1 M377.9,302.3c11.7,0,17.9,8.9,17.9,23.9s-6.2,23.9-17.9,23.9c-12,0-17.9-8.9-17.9-23.4v-1
	C360,311.2,365.9,302.3,377.9,302.3 M615.8,358.3c2.7,0,4.9-1.9,4.9-4.7c0-5.1-5.9-4.3-5.9-12.8V266c0-2.6-2.2-4.8-4.8-4.8h-0.2
	c-2.6,0-4.8,2.2-4.8,4.8v77.7C604.9,350.9,610.4,358.3,615.8,358.3"/>
</svg>
